SplineFontDB: 3.2
FontName: tf2-classicons
FullName: tf2-classicons
FamilyName: tf2-classicons
Weight: Book
Copyright: Qixalite / qix.tf
Version: 1.0
ItalicAngle: 0
UnderlinePosition: 0
UnderlineWidth: 0
Ascent: 960
Descent: 64
InvalidEm: 0
sfntRevision: 0x00010000
LayerCount: 2
Layer: 0 1 "Back" 1
Layer: 1 1 "Fore" 0
XUID: [1021 309 -396570980 8613706]
StyleMap: 0x0040
FSType: 0
OS2Version: 3
OS2_WeightWidthSlopeOnly: 0
OS2_UseTypoMetrics: 0
CreationTime: 1520238786
ModificationTime: 1677491956
PfmFamily: 81
TTFWeight: 400
TTFWidth: 5
LineGap: 0
VLineGap: 0
Panose: 0 0 0 0 0 0 0 0 0 0
OS2TypoAscent: 960
OS2TypoAOffset: 0
OS2TypoDescent: -64
OS2TypoDOffset: 0
OS2TypoLinegap: 64
OS2WinAscent: 960
OS2WinAOffset: 0
OS2WinDescent: 64
OS2WinDOffset: 0
HheadAscent: 960
HheadAOffset: 0
HheadDescent: -64
HheadDOffset: 0
OS2SubXSize: 665
OS2SubYSize: 716
OS2SubXOff: 0
OS2SubYOff: 143
OS2SupXSize: 665
OS2SupYSize: 716
OS2SupXOff: 0
OS2SupYOff: 491
OS2StrikeYSize: 51
OS2StrikeYPos: 265
OS2CodePages: 00000001.00000000
OS2UnicodeRanges: 00000001.00000000.00000020.00000000
Lookup: 4 0 1 "'liga' Standard Ligatures in Latin lookup 0" { "'liga' Standard Ligatures in Latin lookup 0 subtable"  } [' RQD' ('latn' <'dflt' > ) 'liga' ('latn' <'dflt' > ) ]
DEI: 91125
ShortTable: maxp 16
  1
  0
  37
  469
  13
  0
  0
  2
  0
  0
  0
  0
  0
  0
  0
  0
EndShort
LangName: 1033 "" "" "Regular" "tf2-classicons" "" "Version 1.0" "" "" "" "Sickday" "A web icon font representing TF2 core gamemodes classes+AAoA-Font generated by IcoMoon." "https://github.com/Qixalite/tf2-classfont" "" "MIT" "https://github.com/Qixalite/tf2-classfont/blob/master/LICENSE"
GaspTable: 1 65535 15 1
Encoding: UnicodeFull
UnicodeInterp: none
NameList: AGL For New Fonts
DisplaySize: -48
AntiAlias: 1
FitToEm: 0
WinInfo: 0 23 12
BeginChars: 1114113 25

StartChar: uni0000
Encoding: 0 0 1
Width: 0
GlyphClass: 1
Flags: W
LayerCount: 2
Fore
SplineSet
0 0 m 1,0,-1
 0 0 l 1,1,-1
 0 0 l 1,2,-1
 0 0 l 1,0,-1
EndSplineSet
Validated: 1
EndChar

StartChar: uni0001
Encoding: 1 1 2
Width: 0
GlyphClass: 1
Flags: W
LayerCount: 2
Fore
SplineSet
0 0 m 1,0,-1
 0 0 l 1,1,-1
 0 0 l 1,2,-1
 0 0 l 1,0,-1
EndSplineSet
Validated: 1
EndChar

StartChar: space
Encoding: 32 32 3
Width: 512
GlyphClass: 1
Flags: W
LayerCount: 2
Fore
SplineSet
0 0 m 1,0,-1
 0 0 l 1,1,-1
 0 0 l 1,2,-1
 0 0 l 1,0,-1
EndSplineSet
Validated: 1
EndChar

StartChar: n
Encoding: 110 110 4
Width: 0
GlyphClass: 1
Flags: W
LayerCount: 2
Fore
SplineSet
0 0 m 1,0,-1
 0 0 l 1,1,-1
 0 0 l 1,2,-1
 0 0 l 1,0,-1
EndSplineSet
Validated: 1
EndChar

StartChar: o
Encoding: 111 111 5
Width: 0
GlyphClass: 1
Flags: W
LayerCount: 2
Fore
SplineSet
0 0 m 1,0,-1
 0 0 l 1,1,-1
 0 0 l 1,2,-1
 0 0 l 1,0,-1
EndSplineSet
Validated: 1
EndChar

StartChar: p
Encoding: 112 112 6
Width: 0
GlyphClass: 1
Flags: W
LayerCount: 2
Fore
SplineSet
0 0 m 1,0,-1
 0 0 l 1,1,-1
 0 0 l 1,2,-1
 0 0 l 1,0,-1
EndSplineSet
Validated: 1
EndChar

StartChar: r
Encoding: 114 114 7
Width: 0
GlyphClass: 1
Flags: W
LayerCount: 2
Fore
SplineSet
0 0 m 1,0,-1
 0 0 l 1,1,-1
 0 0 l 1,2,-1
 0 0 l 1,0,-1
EndSplineSet
Validated: 1
EndChar

StartChar: t
Encoding: 116 116 8
Width: 0
GlyphClass: 1
Flags: W
LayerCount: 2
Fore
SplineSet
0 0 m 1,0,-1
 0 0 l 1,1,-1
 0 0 l 1,2,-1
 0 0 l 1,0,-1
EndSplineSet
Validated: 1
EndChar

StartChar: u
Encoding: 117 117 9
Width: 0
GlyphClass: 1
Flags: W
LayerCount: 2
Fore
SplineSet
0 0 m 1,0,-1
 0 0 l 1,1,-1
 0 0 l 1,2,-1
 0 0 l 1,0,-1
EndSplineSet
Validated: 1
EndChar

StartChar: v
Encoding: 118 118 10
Width: 0
GlyphClass: 1
Flags: W
LayerCount: 2
Fore
SplineSet
0 0 m 1,0,-1
 0 0 l 1,1,-1
 0 0 l 1,2,-1
 0 0 l 1,0,-1
EndSplineSet
Validated: 1
EndChar

StartChar: uniFFFD
Encoding: 65533 65533 11
Width: 0
GlyphClass: 1
Flags: W
LayerCount: 2
Fore
SplineSet
0 0 m 1,0,-1
 0 0 l 1,1,-1
 0 0 l 1,2,-1
 0 0 l 1,0,-1
EndSplineSet
Validated: 1
EndChar

StartChar: one
Encoding: 49 49 12
Width: 1024
Flags: W
LayerCount: 2
Fore
SplineSet
582 187 m 1,0,1
 576 190 576 190 570.5 192 c 128,-1,2
 565 194 565 194 560 196 c 0,3,4
 537 205 537 205 513 210.5 c 128,-1,5
 489 216 489 216 464 220 c 0,6,7
 448 222 448 222 431.5 223 c 128,-1,8
 415 224 415 224 399 223 c 0,9,10
 395 223 395 223 394 224.5 c 128,-1,11
 393 226 393 226 393 230 c 0,12,13
 397 275 397 275 406.5 320 c 128,-1,14
 416 365 416 365 429 408 c 0,15,16
 433 421 433 421 437.5 434 c 128,-1,17
 442 447 442 447 447 459 c 0,18,19
 447 460 447 460 448.5 461 c 128,-1,20
 450 462 450 462 452 463 c 0,21,22
 503 485 503 485 556.5 502 c 128,-1,23
 610 519 610 519 665 530 c 0,24,25
 676 532 676 532 687 534 c 128,-1,26
 698 536 698 536 709 538 c 0,27,28
 713 539 713 539 715 538 c 128,-1,29
 717 537 717 537 719 534 c 0,30,31
 727 520 727 520 732.5 505.5 c 128,-1,32
 738 491 738 491 738 474 c 0,33,34
 737 461 737 461 732 449 c 128,-1,35
 727 437 727 437 720 426 c 0,36,37
 710 411 710 411 697.5 399 c 128,-1,38
 685 387 685 387 670 378 c 0,39,40
 667 377 667 377 665.5 375 c 128,-1,41
 664 373 664 373 662 370 c 0,42,43
 637 330 637 330 617 288 c 128,-1,44
 597 246 597 246 586 199 c 0,45,46
 585 197 585 197 584 194 c 128,-1,47
 583 191 583 191 582 187 c 1,48,-1
 582 187 l 1,0,1
444 482 m 1,49,50
 443 490 443 490 442.5 498 c 128,-1,51
 442 506 442 506 441 514 c 0,52,53
 436 565 436 565 426 615 c 128,-1,54
 416 665 416 665 397 713 c 0,55,56
 394 718 394 718 391.5 724 c 128,-1,57
 389 730 389 730 386 735 c 0,58,59
 385 738 385 738 384.5 741.5 c 128,-1,60
 384 745 384 745 385 748 c 0,61,62
 388 761 388 761 394 772 c 128,-1,63
 400 783 400 783 410 791 c 0,64,65
 413 794 413 794 417.5 795.5 c 128,-1,66
 422 797 422 797 427 797 c 0,67,68
 442 799 442 799 458 800.5 c 128,-1,69
 474 802 474 802 490 804 c 0,70,71
 530 809 530 809 570 816.5 c 128,-1,72
 610 824 610 824 649 835 c 0,73,74
 665 840 665 840 681 848.5 c 128,-1,75
 697 857 697 857 711 867 c 0,76,77
 719 873 719 873 727.5 878.5 c 128,-1,78
 736 884 736 884 744 890 c 1,79,80
 744 884 744 884 744 877.5 c 128,-1,81
 744 871 744 871 744 865 c 0,82,83
 744 856 744 856 745 847.5 c 128,-1,84
 746 839 746 839 747 830 c 0,85,86
 748 826 748 826 747 824.5 c 128,-1,87
 746 823 746 823 742 822 c 0,88,89
 703 810 703 810 664 798.5 c 128,-1,90
 625 787 625 787 586 776 c 0,91,92
 567 770 567 770 547.5 764 c 128,-1,93
 528 758 528 758 508 754 c 0,94,95
 494 750 494 750 484 738.5 c 128,-1,96
 474 727 474 727 474 711 c 0,97,98
 475 687 475 687 475 664 c 128,-1,99
 475 641 475 641 477 618 c 0,100,101
 478 604 478 604 481.5 590 c 128,-1,102
 485 576 485 576 488 563 c 0,103,104
 489 563 489 563 489.5 563 c 128,-1,105
 490 563 490 563 491 563 c 1,106,107
 491 564 491 564 491 565.5 c 128,-1,108
 491 567 491 567 491 569 c 0,109,110
 491 585 491 585 491.5 601.5 c 128,-1,111
 492 618 492 618 492 634 c 0,112,113
 492 643 492 643 497.5 648 c 128,-1,114
 503 653 503 653 511 653 c 0,115,116
 529 653 529 653 547 652.5 c 128,-1,117
 565 652 565 652 583 652 c 0,118,119
 613 652 613 652 643 652 c 128,-1,120
 673 652 673 652 703 651 c 0,121,122
 705 651 705 651 707.5 651 c 128,-1,123
 710 651 710 651 712 651 c 1,124,125
 698 626 698 626 675 614 c 128,-1,126
 652 602 652 602 626 593 c 1,127,128
 645 585 645 585 663.5 577.5 c 128,-1,129
 682 570 682 570 698 557 c 1,130,131
 632 546 632 546 569 527.5 c 128,-1,132
 506 509 506 509 444 482 c 1,133,-1
 444 482 l 1,49,50
351 45 m 1,134,135
 332 45 332 45 313 45 c 128,-1,136
 294 45 294 45 275 45 c 0,137,138
 271 45 271 45 267 46.5 c 128,-1,139
 263 48 263 48 260 51 c 0,140,141
 250 62 250 62 245.5 74.5 c 128,-1,142
 241 87 241 87 240 101 c 0,143,144
 240 105 240 105 246 113.5 c 128,-1,145
 252 122 252 122 256 123 c 0,146,147
 258 123 258 123 261 122.5 c 128,-1,148
 264 122 264 122 267 121 c 0,149,150
 279 116 279 116 291 115 c 128,-1,151
 303 114 303 114 315 119 c 0,152,153
 325 123 325 123 332.5 129 c 128,-1,154
 340 135 340 135 346 145 c 0,155,156
 354 160 354 160 363.5 174 c 128,-1,157
 373 188 373 188 383 202 c 0,158,159
 385 205 385 205 387.5 206 c 128,-1,160
 390 207 390 207 394 207 c 0,161,162
 426 207 426 207 456.5 201.5 c 128,-1,163
 487 196 487 196 517 188 c 0,164,165
 530 185 530 185 542.5 180.5 c 128,-1,166
 555 176 555 176 568 171 c 0,167,168
 572 170 572 170 573 167.5 c 128,-1,169
 574 165 574 165 571 161 c 0,170,171
 567 154 567 154 563 146.5 c 128,-1,172
 559 139 559 139 554 132 c 0,173,174
 534 98 534 98 504 77 c 128,-1,175
 474 56 474 56 436 46 c 0,176,177
 434 46 434 46 432.5 45.5 c 128,-1,178
 431 45 431 45 429 45 c 0,179,180
 410 45 410 45 390.5 45 c 128,-1,181
 371 45 371 45 351 45 c 1,182,-1
 351 45 l 1,134,135
493 662 m 1,183,184
 493 664 493 664 492.5 666 c 128,-1,185
 492 668 492 668 492 670 c 0,186,187
 492 673 492 673 492 676 c 128,-1,188
 492 679 492 679 492 683 c 0,189,190
 492 690 492 690 496 695 c 128,-1,191
 500 700 500 700 508 701 c 0,192,193
 559 710 559 710 610 719 c 128,-1,194
 661 728 661 728 712 737 c 0,195,196
 720 739 720 739 728.5 740.5 c 128,-1,197
 737 742 737 742 745 743 c 0,198,199
 746 743 746 743 747.5 743 c 128,-1,200
 749 743 749 743 751 744 c 1,201,202
 750 740 750 740 750 737 c 128,-1,203
 750 734 750 734 749 732 c 0,204,205
 746 715 746 715 741 699 c 128,-1,206
 736 683 736 683 727 669 c 0,207,208
 724 666 724 666 722 664.5 c 128,-1,209
 720 663 720 663 716 663 c 0,210,211
 666 664 666 664 616 664 c 128,-1,212
 566 664 566 664 516 664 c 0,213,214
 511 664 511 664 505.5 663 c 128,-1,215
 500 662 500 662 493 662 c 1,216,-1
 493 662 l 1,183,184
494 711 m 1,217,218
 491 723 491 723 495 730.5 c 128,-1,219
 499 738 499 738 512 742 c 0,220,221
 524 746 524 746 537 749.5 c 128,-1,222
 550 753 550 753 563 757 c 0,223,224
 608 770 608 770 653.5 783.5 c 128,-1,225
 699 797 699 797 744 810 c 0,226,227
 746 810 746 810 747.5 810.5 c 128,-1,228
 749 811 749 811 751 812 c 1,229,230
 753 807 753 807 754 802.5 c 128,-1,231
 755 798 755 798 755 793 c 0,232,233
 756 786 756 786 755 778.5 c 128,-1,234
 754 771 754 771 754 764 c 0,235,236
 754 760 754 760 752 758 c 128,-1,237
 750 756 750 756 746 756 c 0,238,239
 698 747 698 747 649 738.5 c 128,-1,240
 600 730 600 730 551 721 c 0,241,242
 538 719 538 719 525 716.5 c 128,-1,243
 512 714 512 714 499 712 c 0,244,245
 498 712 498 712 496.5 711.5 c 128,-1,246
 495 711 495 711 494 711 c 1,247,-1
 494 711 l 1,217,218
EndSplineSet
Validated: 37
EndChar

StartChar: two
Encoding: 50 50 13
Width: 1024
Flags: W
LayerCount: 2
Fore
SplineSet
799 545 m 1,0,1
 798 546 798 546 796.5 546.5 c 128,-1,2
 795 547 795 547 794 547 c 0,3,4
 757 571 757 571 725 601 c 128,-1,5
 693 631 693 631 666 666 c 0,6,7
 660 674 660 674 654.5 682 c 128,-1,8
 649 690 649 690 643 698 c 0,9,10
 641 701 641 701 641.5 703.5 c 128,-1,11
 642 706 642 706 644 709 c 0,12,13
 658 724 658 724 674.5 735 c 128,-1,14
 691 746 691 746 708 756 c 0,15,16
 741 774 741 774 773.5 793 c 128,-1,17
 806 812 806 812 838 831 c 0,18,19
 848 836 848 836 858 842 c 128,-1,20
 868 848 868 848 878 853 c 0,21,22
 880 855 880 855 882.5 855 c 128,-1,23
 885 855 885 855 888 853 c 0,24,25
 906 842 906 842 920.5 827 c 128,-1,26
 935 812 935 812 946 794 c 0,27,28
 948 790 948 790 948 787 c 128,-1,29
 948 784 948 784 946 780 c 0,30,31
 916 729 916 729 886.5 677.5 c 128,-1,32
 857 626 857 626 827 575 c 0,33,34
 822 567 822 567 815 560.5 c 128,-1,35
 808 554 808 554 802 547 c 0,36,37
 801 546 801 546 800.5 546 c 128,-1,38
 800 546 800 546 799 545 c 1,39,-1
 799 545 l 1,0,1
509 481 m 1,40,41
 510 478 510 478 511.5 476 c 128,-1,42
 513 474 513 474 514 473 c 0,43,44
 524 456 524 456 537.5 442.5 c 128,-1,45
 551 429 551 429 568 419 c 0,46,47
 573 416 573 416 573 415 c 128,-1,48
 573 414 573 414 568 410 c 0,49,50
 529 378 529 378 495 342 c 128,-1,51
 461 306 461 306 433 265 c 0,52,53
 417 243 417 243 404.5 220 c 128,-1,54
 392 197 392 197 383 172 c 0,55,56
 381 164 381 164 379 156 c 128,-1,57
 377 148 377 148 376 140 c 256,58,59
 375 132 375 132 369 127.5 c 128,-1,60
 363 123 363 123 358 118 c 0,61,62
 358 117 358 117 357 117.5 c 128,-1,63
 356 118 356 118 355 118 c 0,64,65
 354 119 354 119 353 119.5 c 128,-1,66
 352 120 352 120 351 121 c 0,67,68
 317 155 317 155 283 189.5 c 128,-1,69
 249 224 249 224 215 257 c 0,70,71
 212 261 212 261 212 263 c 128,-1,72
 212 265 212 265 215 269 c 0,73,74
 221 275 221 275 228 278.5 c 128,-1,75
 235 282 235 282 243 284 c 0,76,77
 263 287 263 287 281.5 295 c 128,-1,78
 300 303 300 303 317 313 c 0,79,80
 362 338 362 338 401 370.5 c 128,-1,81
 440 403 440 403 474 440 c 0,82,83
 482 449 482 449 489.5 458 c 128,-1,84
 497 467 497 467 505 476 c 0,85,86
 506 477 506 477 506.5 478 c 128,-1,87
 507 479 507 479 509 481 c 1,88,-1
 509 481 l 1,40,41
627 692 m 1,89,90
 657 642 657 642 697 602 c 128,-1,91
 737 562 737 562 787 533 c 1,92,93
 786 532 786 532 786 531.5 c 128,-1,94
 786 531 786 531 785 530 c 0,95,96
 774 519 774 519 762 508.5 c 128,-1,97
 750 498 750 498 735 492 c 0,98,99
 718 485 718 485 700.5 479.5 c 128,-1,100
 683 474 683 474 665 472 c 0,101,102
 664 472 664 472 663.5 472 c 128,-1,103
 663 472 663 472 663 472 c 1,104,105
 657 468 657 468 652.5 469 c 128,-1,106
 648 470 648 470 643 473 c 0,107,108
 620 489 620 489 600.5 508.5 c 128,-1,109
 581 528 581 528 566 552 c 0,110,111
 564 556 564 556 563.5 559.5 c 128,-1,112
 563 563 563 563 565 567 c 0,113,114
 566 568 566 568 566.5 569.5 c 128,-1,115
 567 571 567 571 567 572 c 0,116,117
 569 595 569 595 577 616.5 c 128,-1,118
 585 638 585 638 596 658 c 0,119,120
 599 664 599 664 604.5 669 c 128,-1,121
 610 674 610 674 615 679 c 0,122,123
 618 682 618 682 621 685.5 c 128,-1,124
 624 689 624 689 627 692 c 1,125,-1
 627 692 l 1,89,90
188 36 m 1,126,127
 209 51 209 51 225.5 70.5 c 128,-1,128
 242 90 242 90 258 112 c 1,129,130
 235 105 235 105 215.5 93.5 c 128,-1,131
 196 82 196 82 178 68 c 0,132,133
 161 54 161 54 145.5 37.5 c 128,-1,134
 130 21 130 21 118 3 c 1,135,136
 133 51 133 51 155 96.5 c 128,-1,137
 177 142 177 142 202 186 c 1,138,139
 190 179 190 179 178.5 172.5 c 128,-1,140
 167 166 167 166 156 158 c 0,141,142
 146 150 146 150 136.5 140 c 128,-1,143
 127 130 127 130 116 120 c 1,144,145
 119 127 119 127 122 133 c 128,-1,146
 125 139 125 139 128 145 c 0,147,148
 143 173 143 173 163.5 195 c 128,-1,149
 184 217 184 217 210 236 c 0,150,151
 219 242 219 242 221.5 241.5 c 128,-1,152
 224 241 224 241 230 232 c 0,153,154
 250 202 250 202 275.5 176.5 c 128,-1,155
 301 151 301 151 331 131 c 0,156,157
 335 129 335 129 335 126.5 c 128,-1,158
 335 124 335 124 332 122 c 0,159,160
 328 117 328 117 323.5 112.5 c 128,-1,161
 319 108 319 108 314 104 c 0,162,163
 298 93 298 93 282.5 81.5 c 128,-1,164
 267 70 267 70 252 58 c 0,165,166
 249 57 249 57 246.5 55.5 c 128,-1,167
 244 54 244 54 241 53 c 0,168,169
 229 49 229 49 217.5 44.5 c 128,-1,170
 206 40 206 40 194 35 c 0,171,172
 193 35 193 35 192 34.5 c 128,-1,173
 191 34 191 34 190 34 c 256,174,175
 189 34 189 34 188.5 34.5 c 128,-1,176
 188 35 188 35 188 36 c 1,177,-1
 188 36 l 1,126,127
637 458 m 1,178,179
 634 456 634 456 632 455 c 128,-1,180
 630 454 630 454 628 452 c 0,181,182
 619 446 619 446 610 440 c 128,-1,183
 601 434 601 434 592 428 c 0,184,185
 589 426 589 426 586 425.5 c 128,-1,186
 583 425 583 425 579 427 c 0,187,188
 561 438 561 438 547 452.5 c 128,-1,189
 533 467 533 467 522 485 c 0,190,191
 519 489 519 489 519.5 492 c 128,-1,192
 520 495 520 495 523 499 c 0,193,194
 529 508 529 508 535.5 517 c 128,-1,195
 542 526 542 526 548 536 c 0,196,197
 549 537 549 537 550 538.5 c 128,-1,198
 551 540 551 540 552 542 c 1,199,200
 567 514 567 514 587.5 493.5 c 128,-1,201
 608 473 608 473 637 458 c 1,202,-1
 637 458 l 1,178,179
EndSplineSet
Validated: 5
EndChar

StartChar: three
Encoding: 51 51 14
Width: 1024
Flags: W
LayerCount: 2
Fore
SplineSet
249 693 m 1,0,1
 256 689 256 689 262.5 685.5 c 128,-1,2
 269 682 269 682 275 677 c 0,3,4
 288 668 288 668 300.5 658 c 128,-1,5
 313 648 313 648 325 638 c 0,6,7
 333 630 333 630 340 621.5 c 128,-1,8
 347 613 347 613 354 604 c 0,9,10
 362 594 362 594 369 584 c 128,-1,11
 376 574 376 574 384 564 c 0,12,13
 386 561 386 561 388.5 558.5 c 128,-1,14
 391 556 391 556 394 554 c 0,15,16
 399 551 399 551 404 552.5 c 128,-1,17
 409 554 409 554 412 559 c 0,18,19
 413 563 413 563 414.5 567 c 128,-1,20
 416 571 416 571 417 575 c 0,21,22
 425 609 425 609 437.5 640.5 c 128,-1,23
 450 672 450 672 468 702 c 0,24,25
 478 718 478 718 488.5 734 c 128,-1,26
 499 750 499 750 509 766 c 0,27,28
 515 775 515 775 519.5 784.5 c 128,-1,29
 524 794 524 794 526 805 c 0,30,31
 529 822 529 822 525.5 836.5 c 128,-1,32
 522 851 522 851 510 864 c 0,33,34
 509 865 509 865 508 866 c 128,-1,35
 507 867 507 867 507 869 c 1,36,37
 512 866 512 866 516.5 864 c 128,-1,38
 521 862 521 862 525 859 c 0,39,40
 547 844 547 844 563.5 825 c 128,-1,41
 580 806 580 806 594 784 c 0,42,43
 615 749 615 749 626.5 710.5 c 128,-1,44
 638 672 638 672 642 631 c 0,45,46
 647 590 647 590 644 549 c 128,-1,47
 641 508 641 508 631 468 c 0,48,49
 628 456 628 456 629.5 446 c 128,-1,50
 631 436 631 436 639 427 c 0,51,52
 648 415 648 415 661.5 414.5 c 128,-1,53
 675 414 675 414 686 425 c 0,54,55
 694 433 694 433 698 443 c 128,-1,56
 702 453 702 453 701 465 c 0,57,58
 700 489 700 489 707 511.5 c 128,-1,59
 714 534 714 534 723 555 c 0,60,61
 731 572 731 572 740.5 588 c 128,-1,62
 750 604 750 604 763 618 c 0,63,64
 765 620 765 620 767.5 622.5 c 128,-1,65
 770 625 770 625 773 627 c 1,66,67
 772 622 772 622 771.5 616.5 c 128,-1,68
 771 611 771 611 770 606 c 0,69,70
 768 567 768 567 774.5 529 c 128,-1,71
 781 491 781 491 799 455 c 0,72,73
 806 440 806 440 810.5 423 c 128,-1,74
 815 406 815 406 818 389 c 0,75,76
 824 347 824 347 819 306 c 128,-1,77
 814 265 814 265 795 226 c 0,78,79
 760 151 760 151 700.5 108 c 128,-1,80
 641 65 641 65 558 56 c 0,81,82
 499 50 499 50 445 67 c 256,83,84
 391 84 391 84 348 118.5 c 128,-1,85
 305 153 305 153 277 202 c 256,86,87
 249 251 249 251 242 310 c 0,88,89
 239 334 239 334 244.5 357 c 128,-1,90
 250 380 250 380 259 402 c 0,91,92
 267 421 267 421 276 440 c 128,-1,93
 285 459 285 459 289 479 c 0,94,95
 301 529 301 529 296 576.5 c 128,-1,96
 291 624 291 624 264 669 c 0,97,98
 261 675 261 675 256.5 680.5 c 128,-1,99
 252 686 252 686 248 691 c 0,100,101
 249 692 249 692 249 692 c 129,-1,102
 249 692 249 692 249 693 c 1,103,-1
 249 693 l 1,0,1
EndSplineSet
Validated: 37
EndChar

StartChar: four
Encoding: 52 52 15
Width: 1024
Flags: W
LayerCount: 2
Fore
SplineSet
691 195 m 1,0,1
 645 239 645 239 594 276 c 0,2,3
 544 314 544 314 489.5 345.5 c 128,-1,4
 435 377 435 377 377 402 c 0,5,6
 319 428 319 428 257 447 c 1,7,8
 297 452 297 452 325.5 471.5 c 128,-1,9
 354 491 354 491 368 529 c 0,10,11
 381 567 381 567 371.5 600.5 c 128,-1,12
 362 634 362 634 337 664 c 1,13,14
 386 657 386 657 432.5 642.5 c 128,-1,15
 479 628 479 628 524 609 c 0,16,17
 569 589 569 589 611.5 565 c 128,-1,18
 654 541 654 541 693 511 c 0,19,20
 732 482 732 482 768 448.5 c 128,-1,21
 804 415 804 415 835 377 c 1,22,23
 835 377 835 377 834.5 376.5 c 128,-1,24
 834 376 834 376 834 375 c 1,25,26
 829 376 829 376 824.5 376 c 128,-1,27
 820 376 820 376 815 377 c 0,28,29
 782 379 782 379 754.5 368.5 c 128,-1,30
 727 358 727 358 706 332 c 0,31,32
 687 311 687 311 681 285.5 c 128,-1,33
 675 260 675 260 680 232 c 0,34,35
 682 222 682 222 685.5 213 c 128,-1,36
 689 204 689 204 691 195 c 1,37,-1
 691 195 l 1,0,1
667 456 m 0,38,39
 669 503 669 503 634.5 539 c 128,-1,40
 600 575 600 575 553 576 c 0,41,42
 502 578 502 578 465.5 544 c 128,-1,43
 429 510 429 510 428 461 c 0,44,45
 426 410 426 410 460 374 c 128,-1,46
 494 338 494 338 544 336 c 0,47,48
 594 335 594 335 630 369.5 c 128,-1,49
 666 404 666 404 667 456 c 0,38,39
216 408 m 1,50,51
 278 396 278 396 336 375 c 128,-1,52
 394 354 394 354 448 324 c 0,53,54
 512 289 512 289 568 245 c 128,-1,55
 624 201 624 201 672 147 c 0,56,57
 671 146 671 146 670.5 145.5 c 128,-1,58
 670 145 670 145 670 145 c 1,59,60
 669 146 669 146 667.5 147 c 128,-1,61
 666 148 666 148 665 150 c 0,62,63
 646 167 646 167 625 173 c 128,-1,64
 604 179 604 179 579 170 c 0,65,66
 562 164 562 164 552 151 c 128,-1,67
 542 138 542 138 538 120 c 0,68,69
 537 116 537 116 535.5 115 c 128,-1,70
 534 114 534 114 530 114 c 0,71,72
 516 115 516 115 501.5 116.5 c 128,-1,73
 487 118 487 118 473 120 c 0,74,75
 469 120 469 120 468 122 c 128,-1,76
 467 124 467 124 468 127 c 0,77,78
 474 171 474 171 449 205 c 128,-1,79
 424 239 424 239 381 246 c 0,80,81
 359 249 359 249 338.5 243.5 c 128,-1,82
 318 238 318 238 301 224 c 0,83,84
 298 222 298 222 296 222 c 128,-1,85
 294 222 294 222 291 225 c 0,86,87
 282 237 282 237 273 249.5 c 128,-1,88
 264 262 264 262 255 275 c 1,89,90
 275 291 275 291 282 310.5 c 128,-1,91
 289 330 289 330 280 353 c 0,92,93
 272 376 272 376 255 388.5 c 128,-1,94
 238 401 238 401 216 408 c 1,95,-1
 216 408 l 1,50,51
854 427 m 1,96,97
 849 431 849 431 845 435.5 c 128,-1,98
 841 440 841 440 836 444 c 0,99,100
 823 456 823 456 809.5 468.5 c 128,-1,101
 796 481 796 481 783 493 c 0,102,103
 772 503 772 503 760.5 512.5 c 128,-1,104
 749 522 749 522 737 530 c 0,105,106
 720 542 720 542 703 553 c 128,-1,107
 686 564 686 564 669 574 c 0,108,109
 643 590 643 590 616.5 605 c 128,-1,110
 590 620 590 620 563 634 c 0,111,112
 545 644 545 644 526.5 652 c 128,-1,113
 508 660 508 660 490 668 c 0,114,115
 471 675 471 675 452 681.5 c 128,-1,116
 433 688 433 688 414 694 c 0,117,118
 404 697 404 697 394.5 699.5 c 128,-1,119
 385 702 385 702 375 704 c 0,120,121
 374 705 374 705 372.5 705.5 c 128,-1,122
 371 706 371 706 369 706 c 1,123,124
 369 707 369 707 369 707 c 129,-1,125
 369 707 369 707 369 708 c 0,126,127
 376 712 376 712 383.5 716 c 128,-1,128
 391 720 391 720 399 723 c 0,129,130
 400 724 400 724 402 722.5 c 128,-1,131
 404 721 404 721 405 720 c 0,132,133
 416 708 416 708 429.5 701 c 128,-1,134
 443 694 443 694 459 692 c 0,135,136
 486 689 486 689 507.5 704.5 c 128,-1,137
 529 720 529 720 534 747 c 0,138,139
 535 751 535 751 537 752.5 c 128,-1,140
 539 754 539 754 543 754 c 0,141,142
 601 752 601 752 652 732 c 128,-1,143
 703 712 703 712 747 673 c 0,144,145
 765 657 765 657 780.5 638.5 c 128,-1,146
 796 620 796 620 808 600 c 0,147,148
 810 597 810 597 810 595.5 c 128,-1,149
 810 594 810 594 808 591 c 0,150,151
 786 574 786 574 782.5 547.5 c 128,-1,152
 779 521 779 521 796 498 c 0,153,154
 806 485 806 485 818.5 477 c 128,-1,155
 831 469 831 469 847 465 c 0,156,157
 851 465 851 465 852.5 463 c 128,-1,158
 854 461 854 461 854 457 c 0,159,160
 854 450 854 450 854 442.5 c 128,-1,161
 854 435 854 435 854 427 c 1,162,-1
 854 427 l 1,96,97
98 666 m 1,163,164
 108 665 108 665 117.5 664.5 c 128,-1,165
 127 664 127 664 136 663 c 0,166,167
 171 660 171 660 206 657 c 128,-1,168
 241 654 241 654 276 650 c 0,169,170
 288 649 288 649 300.5 648.5 c 128,-1,171
 313 648 313 648 325 646 c 0,172,173
 327 646 327 646 329 645 c 128,-1,174
 331 644 331 644 332 643 c 0,175,176
 354 613 354 613 357.5 582 c 128,-1,177
 361 551 361 551 345 518 c 0,178,179
 340 506 340 506 329.5 497 c 128,-1,180
 319 488 319 488 308 481 c 0,181,182
 293 471 293 471 277.5 467 c 128,-1,183
 262 463 262 463 244 464 c 0,184,185
 242 464 242 464 239.5 465.5 c 128,-1,186
 237 467 237 467 236 469 c 0,187,188
 202 517 202 517 168.5 565 c 128,-1,189
 135 613 135 613 101 661 c 0,190,191
 100 662 100 662 99.5 663 c 128,-1,192
 99 664 99 664 98 666 c 1,193,-1
 98 666 l 1,163,164
960 168 m 1,194,195
 953 169 953 169 946 169.5 c 128,-1,196
 939 170 939 170 933 170 c 0,197,198
 905 173 905 173 877 175.5 c 128,-1,199
 849 178 849 178 822 180 c 0,200,201
 796 182 796 182 771 184.5 c 128,-1,202
 746 187 746 187 721 189 c 0,203,204
 718 189 718 189 715.5 191 c 128,-1,205
 713 193 713 193 712 195 c 0,206,207
 695 222 695 222 694.5 250.5 c 128,-1,208
 694 279 694 279 707 307 c 0,209,210
 714 321 714 321 726.5 331 c 128,-1,211
 739 341 739 341 754 349 c 0,212,213
 770 357 770 357 787 359.5 c 128,-1,214
 804 362 804 362 822 360 c 0,215,216
 824 359 824 359 826 358 c 128,-1,217
 828 357 828 357 829 355 c 0,218,219
 862 309 862 309 894.5 263 c 128,-1,220
 927 217 927 217 959 171 c 1,221,222
 959 171 959 171 959.5 170.5 c 128,-1,223
 960 170 960 170 960 168 c 1,194,195
288 9 m 1,224,225
 288 15 288 15 288.5 20.5 c 128,-1,226
 289 26 289 26 289 31 c 0,227,228
 293 74 293 74 297 117.5 c 128,-1,229
 301 161 301 161 305 205 c 0,230,231
 305 207 305 207 306 210 c 128,-1,232
 307 213 307 213 309 215 c 0,233,234
 334 235 334 235 361 235.5 c 128,-1,235
 388 236 388 236 411 223 c 0,236,237
 433 210 433 210 447 185 c 128,-1,238
 461 160 461 160 455 128 c 0,239,240
 454 126 454 126 453 124.5 c 128,-1,241
 452 123 452 123 450 122 c 0,242,243
 411 94 411 94 371 66.5 c 128,-1,244
 331 39 331 39 292 11 c 0,245,246
 291 10 291 10 290 10 c 128,-1,247
 289 10 289 10 288 9 c 1,248,-1
 288 9 l 1,224,225
434 861 m 1,249,250
 438 857 438 857 441.5 853.5 c 128,-1,251
 445 850 445 850 448 846 c 0,252,253
 466 824 466 824 484 802.5 c 128,-1,254
 502 781 502 781 521 759 c 0,255,256
 523 756 523 756 523.5 752.5 c 128,-1,257
 524 749 524 749 524 746 c 0,258,259
 521 730 521 730 508.5 718 c 128,-1,260
 496 706 496 706 479 703 c 0,261,262
 461 700 461 700 444 705 c 128,-1,263
 427 710 427 710 414 725 c 0,264,265
 413 726 413 726 412 728.5 c 128,-1,266
 411 731 411 731 411 734 c 0,267,268
 416 764 416 764 421.5 795 c 128,-1,269
 427 826 427 826 433 856 c 0,270,271
 433 857 433 857 433.5 858.5 c 128,-1,272
 434 860 434 860 434 861 c 1,249,250
956 560 m 1,273,274
 949 554 949 554 942.5 549 c 128,-1,275
 936 544 936 544 929 538 c 0,276,277
 912 524 912 524 894.5 509 c 128,-1,278
 877 494 877 494 859 479 c 0,279,280
 855 476 855 476 851.5 475.5 c 128,-1,281
 848 475 848 475 843 476 c 0,282,283
 814 484 814 484 800 510.5 c 128,-1,284
 786 537 786 537 798 564 c 0,285,286
 800 569 800 569 805.5 574 c 128,-1,287
 811 579 811 579 815 584 c 0,288,289
 816 585 816 585 818 585 c 128,-1,290
 820 585 820 585 821 585 c 0,291,292
 853 579 853 579 885.5 573.5 c 128,-1,293
 918 568 918 568 950 562 c 0,294,295
 951 562 951 562 952 561.5 c 128,-1,296
 953 561 953 561 956 560 c 1,297,-1
 956 560 l 1,273,274
115 310 m 1,298,299
 125 319 125 319 134 326.5 c 128,-1,300
 143 334 143 334 152 341 c 0,301,302
 167 354 167 354 182.5 367 c 128,-1,303
 198 380 198 380 213 392 c 0,304,305
 215 394 215 394 217 394.5 c 128,-1,306
 219 395 219 395 221 395 c 0,307,308
 251 389 251 389 266 362 c 128,-1,309
 281 335 281 335 269 307 c 0,310,311
 267 301 267 301 262 296.5 c 128,-1,312
 257 292 257 292 252 287 c 0,313,314
 251 286 251 286 249.5 286 c 128,-1,315
 248 286 248 286 246 286 c 0,316,317
 215 292 215 292 183.5 297.5 c 128,-1,318
 152 303 152 303 121 308 c 0,319,320
 120 309 120 309 118.5 309.5 c 128,-1,321
 117 310 117 310 115 310 c 1,322,-1
 115 310 l 1,298,299
636 9 m 1,323,324
 628 19 628 19 620 28.5 c 128,-1,325
 612 38 612 38 604 48 c 0,326,327
 591 63 591 63 578 78.5 c 128,-1,328
 565 94 565 94 552 109 c 0,329,330
 550 112 550 112 549 114 c 128,-1,331
 548 116 548 116 548 120 c 0,332,333
 550 141 550 141 570.5 154.5 c 128,-1,334
 591 168 591 168 612 165 c 0,335,336
 625 164 625 164 636.5 159 c 128,-1,337
 648 154 648 154 657 144 c 0,338,339
 658 143 658 143 659 140.5 c 128,-1,340
 660 138 660 138 659 136 c 0,341,342
 654 106 654 106 649 76 c 128,-1,343
 644 46 644 46 638 15 c 0,344,345
 638 14 638 14 637.5 12.5 c 128,-1,346
 637 11 637 11 636 9 c 1,347,-1
 636 9 l 1,323,324
763 828 m 1,348,349
 760 793 760 793 757 758.5 c 128,-1,350
 754 724 754 724 750 688 c 1,351,352
 726 707 726 707 700.5 722 c 128,-1,353
 675 737 675 737 646 748 c 1,354,355
 676 769 676 769 704.5 789 c 128,-1,356
 733 809 733 809 761 828 c 1,357,358
 761 828 761 828 761.5 828 c 128,-1,359
 762 828 762 828 763 828 c 1,348,349
649 457 m 0,360,361
 649 414 649 414 620 384.5 c 128,-1,362
 591 355 591 355 548 354 c 0,363,364
 497 353 497 353 471 388 c 128,-1,365
 445 423 445 423 445 455 c 0,366,367
 446 499 446 499 475.5 528.5 c 128,-1,368
 505 558 505 558 547 559 c 0,369,370
 596 560 596 560 623.5 525 c 128,-1,371
 651 490 651 490 649 457 c 0,360,361
EndSplineSet
Validated: 37
EndChar

StartChar: eight
Encoding: 56 56 16
Width: 1024
Flags: W
LayerCount: 2
Fore
SplineSet
140 430 m 1,0,1
 140 511 140 511 170 582 c 0,2,3
 201 654 201 654 254.5 707 c 128,-1,4
 308 760 308 760 380 791 c 0,5,6
 451 822 451 822 532 822 c 256,7,8
 613 822 613 822 685 791 c 0,9,10
 756 760 756 760 809.5 706.5 c 128,-1,11
 863 653 863 653 893 581 c 0,12,13
 924 510 924 510 924 429 c 0,14,15
 924 347 924 347 893 276 c 256,16,17
 862 205 862 205 808.5 152 c 128,-1,18
 755 99 755 99 684 68 c 0,19,20
 612 37 612 37 531 37 c 256,21,22
 450 37 450 37 379 68 c 0,23,24
 307 99 307 99 254 152.5 c 128,-1,25
 201 206 201 206 170 277 c 0,26,27
 140 349 140 349 140 430 c 1,28,-1
 140 430 l 1,0,1
548 88 m 1,29,30
 549 88 549 88 550 88 c 128,-1,31
 551 88 551 88 551 88 c 2,32,33
 553 88 553 88 554 88 c 128,-1,34
 555 88 555 88 556 89 c 0,35,36
 595 94 595 94 631.5 106 c 128,-1,37
 668 118 668 118 702 137 c 0,38,39
 722 149 722 149 740.5 161.5 c 128,-1,40
 759 174 759 174 775 191 c 0,41,42
 809 229 809 229 832 273 c 128,-1,43
 855 317 855 317 866 367 c 0,44,45
 869 378 869 378 870.5 388.5 c 128,-1,46
 872 399 872 399 874 410 c 1,47,48
 872 410 872 410 870.5 410.5 c 128,-1,49
 869 411 869 411 868 411 c 0,50,51
 825 411 825 411 781.5 411 c 128,-1,52
 738 411 738 411 695 411 c 0,53,54
 692 411 692 411 690.5 410 c 128,-1,55
 689 409 689 409 689 405 c 0,56,57
 680 353 680 353 643.5 317.5 c 128,-1,58
 607 282 607 282 554 274 c 0,59,60
 551 273 551 273 549.5 271.5 c 128,-1,61
 548 270 548 270 548 266 c 0,62,63
 548 223 548 223 548 180 c 128,-1,64
 548 137 548 137 548 94 c 0,65,66
 548 93 548 93 548 91.5 c 128,-1,67
 548 90 548 90 548 88 c 1,68,-1
 548 88 l 1,29,30
873 448 m 1,69,70
 873 450 873 450 873 451.5 c 128,-1,71
 873 453 873 453 873 454 c 0,72,73
 867 501 867 501 851 544 c 128,-1,74
 835 587 835 587 808 626 c 0,75,76
 799 638 799 638 789 651 c 128,-1,77
 779 664 779 664 768 674 c 0,78,79
 728 710 728 710 681.5 733 c 128,-1,80
 635 756 635 756 582 766 c 0,81,82
 574 768 574 768 565.5 769 c 128,-1,83
 557 770 557 770 548 771 c 1,84,85
 548 770 548 770 548 768.5 c 128,-1,86
 548 767 548 767 548 766 c 0,87,88
 548 723 548 723 548 679.5 c 128,-1,89
 548 636 548 636 548 593 c 0,90,91
 548 589 548 589 550 588 c 128,-1,92
 552 587 552 587 555 586 c 0,93,94
 606 579 606 579 643 542.5 c 128,-1,95
 680 506 680 506 688 455 c 0,96,97
 689 451 689 451 691 449.5 c 128,-1,98
 693 448 693 448 697 448 c 0,99,100
 739 448 739 448 781.5 448 c 128,-1,101
 824 448 824 448 866 448 c 0,102,103
 867 448 867 448 869 448 c 128,-1,104
 871 448 871 448 873 448 c 1,69,70
510 273 m 1,105,106
 508 274 508 274 506.5 274 c 128,-1,107
 505 274 505 274 503 275 c 0,108,109
 454 285 454 285 420 319 c 128,-1,110
 386 353 386 353 377 402 c 0,111,112
 376 408 376 408 374 409.5 c 128,-1,113
 372 411 372 411 367 411 c 0,114,115
 325 411 325 411 282.5 411 c 128,-1,116
 240 411 240 411 198 411 c 0,117,118
 197 411 197 411 195 411 c 128,-1,119
 193 411 193 411 191 411 c 1,120,121
 191 409 191 409 191 407.5 c 128,-1,122
 191 406 191 406 191 405 c 0,123,124
 197 358 197 358 213 315 c 128,-1,125
 229 272 229 272 256 233 c 0,126,127
 265 221 265 221 274 208.5 c 128,-1,128
 283 196 283 196 295 186 c 0,129,130
 333 150 333 150 378.5 127.5 c 128,-1,131
 424 105 424 105 476 94 c 0,132,133
 484 92 484 92 493 91 c 128,-1,134
 502 90 502 90 510 88 c 1,135,136
 510 135 510 135 510 181 c 128,-1,137
 510 227 510 227 510 273 c 1,138,-1
 510 273 l 1,105,106
375 448 m 1,139,140
 385 506 385 506 419 540.5 c 128,-1,141
 453 575 453 575 510 587 c 1,142,143
 510 633 510 633 510 678.5 c 128,-1,144
 510 724 510 724 510 770 c 1,145,146
 509 770 509 770 508.5 770 c 128,-1,147
 508 770 508 770 507 770 c 0,148,149
 464 765 464 765 424 750.5 c 128,-1,150
 384 736 384 736 347 713 c 0,151,152
 331 703 331 703 316 692 c 128,-1,153
 301 681 301 681 289 667 c 0,154,155
 253 628 253 628 230 582.5 c 128,-1,156
 207 537 207 537 196 486 c 0,157,158
 194 477 194 477 193 467.5 c 128,-1,159
 192 458 192 458 190 448 c 1,160,161
 237 448 237 448 283 448 c 128,-1,162
 329 448 329 448 375 448 c 1,163,-1
 375 448 l 1,139,140
548 566 m 1,164,165
 548 536 548 536 548 507 c 128,-1,166
 548 478 548 478 548 449 c 1,167,168
 579 449 579 449 608.5 449 c 128,-1,169
 638 449 638 449 668 449 c 1,170,171
 661 495 661 495 629.5 527 c 128,-1,172
 598 559 598 559 548 566 c 1,164,165
668 410 m 1,173,174
 638 410 638 410 608 410 c 128,-1,175
 578 410 578 410 548 410 c 1,176,177
 548 381 548 381 548 352 c 128,-1,178
 548 323 548 323 548 294 c 1,179,180
 596 301 596 301 627.5 331.5 c 128,-1,181
 659 362 659 362 668 410 c 1,173,174
510 566 m 1,182,183
 486 560 486 560 465.5 549.5 c 128,-1,184
 445 539 445 539 429 520 c 0,185,186
 416 504 416 504 408 486.5 c 128,-1,187
 400 469 400 469 396 448 c 1,188,189
 425 448 425 448 453.5 448 c 128,-1,190
 482 448 482 448 510 448 c 1,191,192
 510 478 510 478 510 507 c 128,-1,193
 510 536 510 536 510 566 c 1,182,183
397 410 m 1,194,195
 398 373 398 373 434.5 335.5 c 128,-1,196
 471 298 471 298 510 295 c 1,197,198
 510 324 510 324 510 353 c 128,-1,199
 510 382 510 382 510 410 c 1,200,201
 482 410 482 410 453.5 410 c 128,-1,202
 425 410 425 410 397 410 c 1,194,195
EndSplineSet
Validated: 5
EndChar

StartChar: nine
Encoding: 57 57 17
Width: 1024
Flags: W
LayerCount: 2
Fore
SplineSet
377 399 m 1,0,1
 396 417 396 417 416 435.5 c 128,-1,2
 436 454 436 454 455 473 c 0,3,4
 464 481 464 481 472.5 489 c 128,-1,5
 481 497 481 497 489 505 c 0,6,7
 492 507 492 507 492.5 509 c 128,-1,8
 493 511 493 511 492 514 c 0,9,10
 491 520 491 520 495.5 524.5 c 128,-1,11
 500 529 500 529 506 527 c 0,12,13
 509 526 509 526 513 525 c 128,-1,14
 517 524 517 524 521 522 c 1,15,16
 521 522 521 522 522 523 c 128,-1,17
 523 524 523 524 524 525 c 0,18,19
 569 574 569 574 613.5 623.5 c 128,-1,20
 658 673 658 673 703 722 c 0,21,22
 705 725 705 725 708 727 c 128,-1,23
 711 729 711 729 715 730 c 0,24,25
 750 743 750 743 785.5 756 c 128,-1,26
 821 769 821 769 856 782 c 0,27,28
 858 783 858 783 860 783.5 c 128,-1,29
 862 784 862 784 865 785 c 1,30,31
 866 778 866 778 867 771 c 128,-1,32
 868 764 868 764 867 757 c 0,33,34
 867 742 867 742 862 728 c 128,-1,35
 857 714 857 714 848 701 c 0,36,37
 836 683 836 683 822 665.5 c 128,-1,38
 808 648 808 648 791 633 c 0,39,40
 778 621 778 621 764 609.5 c 128,-1,41
 750 598 750 598 736 586 c 0,42,43
 703 557 703 557 669.5 528.5 c 128,-1,44
 636 500 636 500 602 471 c 0,45,46
 598 467 598 467 594 463.5 c 128,-1,47
 590 460 590 460 586 457 c 1,48,49
 588 452 588 452 590 448 c 128,-1,50
 592 444 592 444 593 440 c 0,51,52
 594 435 594 435 589.5 430.5 c 128,-1,53
 585 426 585 426 581 428 c 0,54,55
 575 430 575 430 571.5 427.5 c 128,-1,56
 568 425 568 425 564 421 c 0,57,58
 542 393 542 393 519 364.5 c 128,-1,59
 496 336 496 336 473 308 c 0,60,61
 473 307 473 307 472 306.5 c 128,-1,62
 471 306 471 306 471 305 c 1,63,64
 447 329 447 329 424 352 c 128,-1,65
 401 375 401 375 377 399 c 1,66,-1
 377 399 l 1,0,1
301 328 m 1,67,68
 327 302 327 302 353 276 c 128,-1,69
 379 250 379 250 405 224 c 1,70,71
 402 220 402 220 399 216.5 c 128,-1,72
 396 213 396 213 393 209 c 0,73,74
 369 179 369 179 344.5 149.5 c 128,-1,75
 320 120 320 120 296 89 c 0,76,77
 294 87 294 87 292 86 c 128,-1,78
 290 85 290 85 286 86 c 0,79,80
 267 89 267 89 253 99.5 c 128,-1,81
 239 110 239 110 230 127 c 0,82,83
 229 129 229 129 227 130.5 c 128,-1,84
 225 132 225 132 223 132 c 0,85,86
 199 138 199 138 183.5 152.5 c 128,-1,87
 168 167 168 167 161 190 c 0,88,89
 160 194 160 194 161 195.5 c 128,-1,90
 162 197 162 197 164 199 c 0,91,92
 190 223 190 223 215.5 247 c 128,-1,93
 241 271 241 271 267 296 c 0,94,95
 276 304 276 304 284 312 c 128,-1,96
 292 320 292 320 301 328 c 1,97,-1
 301 328 l 1,67,68
200 197 m 0,98,99
 199 187 199 187 206 180 c 128,-1,100
 213 173 213 173 223 173 c 256,101,102
 233 173 233 173 240 180 c 128,-1,103
 247 187 247 187 247 197 c 0,104,105
 247 206 247 206 240 213.5 c 128,-1,106
 233 221 233 221 224 221 c 0,107,108
 214 221 214 221 207 214 c 128,-1,109
 200 207 200 207 200 197 c 0,98,99
303 134 m 0,110,111
 303 142 303 142 297 148 c 128,-1,112
 291 154 291 154 283 154 c 0,113,114
 274 154 274 154 268 148 c 128,-1,115
 262 142 262 142 262 134 c 0,116,117
 261 125 261 125 267.5 119 c 128,-1,118
 274 113 274 113 282 113 c 0,119,120
 291 113 291 113 297 119 c 128,-1,121
 303 125 303 125 303 134 c 0,110,111
423 246 m 1,122,123
 397 271 397 271 372 296 c 128,-1,124
 347 321 347 321 321 347 c 1,125,126
 330 355 330 355 338.5 363 c 128,-1,127
 347 371 347 371 355 379 c 1,128,129
 379 354 379 354 403.5 330 c 128,-1,130
 428 306 428 306 452 282 c 1,131,132
 445 273 445 273 437.5 264 c 128,-1,133
 430 255 430 255 423 246 c 1,134,-1
 423 246 l 1,122,123
EndSplineSet
Validated: 5
EndChar

StartChar: seven
Encoding: 55 55 18
Width: 1024
Flags: W
LayerCount: 2
Fore
SplineSet
368 281 m 1,0,1
 365 281 365 281 363 281 c 128,-1,2
 361 281 361 281 359 281 c 0,3,4
 304 281 304 281 250 281 c 128,-1,5
 196 281 196 281 141 281 c 0,6,7
 136 281 136 281 134 283 c 128,-1,8
 132 285 132 285 131 289 c 0,9,10
 120 342 120 342 117 395.5 c 128,-1,11
 114 449 114 449 118 503 c 0,12,13
 120 528 120 528 124 552 c 128,-1,14
 128 576 128 576 132 600 c 0,15,16
 132 604 132 604 134 605.5 c 128,-1,17
 136 607 136 607 140 607 c 0,18,19
 195 607 195 607 249.5 607 c 128,-1,20
 304 607 304 607 359 607 c 0,21,22
 361 607 361 607 363 607 c 128,-1,23
 365 607 365 607 368 607 c 1,24,25
 368 609 368 609 368 611.5 c 128,-1,26
 368 614 368 614 368 616 c 0,27,28
 368 670 368 670 368 724 c 128,-1,29
 368 778 368 778 368 833 c 0,30,31
 368 837 368 837 370 839 c 128,-1,32
 372 841 372 841 376 842 c 0,33,34
 429 854 429 854 482.5 857 c 128,-1,35
 536 860 536 860 590 856 c 0,36,37
 614 854 614 854 638.5 850 c 128,-1,38
 663 846 663 846 687 842 c 0,39,40
 691 842 691 842 692.5 840 c 128,-1,41
 694 838 694 838 694 834 c 0,42,43
 694 779 694 779 694 724.5 c 128,-1,44
 694 670 694 670 694 616 c 0,45,46
 694 614 694 614 694 612 c 128,-1,47
 694 610 694 610 694 607 c 1,48,49
 697 607 697 607 699 607 c 128,-1,50
 701 607 701 607 703 607 c 0,51,52
 757 607 757 607 811 607 c 128,-1,53
 865 607 865 607 920 607 c 0,54,55
 924 607 924 607 926 605 c 128,-1,56
 928 603 928 603 930 599 c 0,57,58
 941 546 941 546 944 492.5 c 128,-1,59
 947 439 947 439 943 386 c 0,60,61
 941 361 941 361 937 336.5 c 128,-1,62
 933 312 933 312 929 288 c 0,63,64
 929 284 929 284 927 282.5 c 128,-1,65
 925 281 925 281 921 281 c 0,66,67
 866 281 866 281 812 281 c 128,-1,68
 758 281 758 281 703 281 c 0,69,70
 701 281 701 281 699 281 c 128,-1,71
 697 281 697 281 694 281 c 1,72,73
 694 279 694 279 694 276.5 c 128,-1,74
 694 274 694 274 694 272 c 0,75,76
 694 218 694 218 694 163.5 c 128,-1,77
 694 109 694 109 694 54 c 0,78,79
 694 49 694 49 692.5 47 c 128,-1,80
 691 45 691 45 686 44 c 0,81,82
 633 33 633 33 579.5 30 c 128,-1,83
 526 27 526 27 472 31 c 0,84,85
 448 33 448 33 424 37 c 128,-1,86
 400 41 400 41 376 44 c 0,87,88
 371 45 371 45 369.5 47 c 128,-1,89
 368 49 368 49 368 54 c 0,90,91
 368 108 368 108 368 162.5 c 128,-1,92
 368 217 368 217 368 272 c 0,93,94
 368 274 368 274 368 276.5 c 128,-1,95
 368 279 368 279 368 281 c 1,96,-1
 368 281 l 1,0,1
291 338 m 0,97,98
 315 338 315 338 339 338 c 128,-1,99
 363 338 363 338 387 338 c 0,100,101
 392 338 392 338 395.5 337 c 128,-1,102
 399 336 399 336 402 332 c 0,103,104
 406 328 406 328 410.5 323.5 c 128,-1,105
 415 319 415 319 420 315 c 0,106,107
 423 312 423 312 424 308.5 c 128,-1,108
 425 305 425 305 425 301 c 0,109,110
 425 252 425 252 425 203.5 c 128,-1,111
 425 155 425 155 425 106 c 0,112,113
 425 101 425 101 427 98.5 c 128,-1,114
 429 96 429 96 434 96 c 0,115,116
 441 95 441 95 447.5 94 c 128,-1,117
 454 93 454 93 461 92 c 0,118,119
 480 90 480 90 499.5 88 c 128,-1,120
 519 86 519 86 538 87 c 0,121,122
 561 87 561 87 584 90.5 c 128,-1,123
 607 94 607 94 630 96 c 0,124,125
 634 97 634 97 636 98.5 c 128,-1,126
 638 100 638 100 638 105 c 0,127,128
 637 154 637 154 637 203 c 128,-1,129
 637 252 637 252 637 300 c 0,130,131
 637 305 637 305 638.5 308.5 c 128,-1,132
 640 312 640 312 643 315 c 0,133,134
 648 319 648 319 652.5 323.5 c 128,-1,135
 657 328 657 328 661 333 c 0,136,137
 664 336 664 336 667 337 c 128,-1,138
 670 338 670 338 674 338 c 0,139,140
 722 338 722 338 771 338 c 128,-1,141
 820 338 820 338 869 338 c 0,142,143
 874 338 874 338 876 340 c 128,-1,144
 878 342 878 342 878 346 c 0,145,146
 879 356 879 356 881 365.5 c 128,-1,147
 883 375 883 375 884 385 c 0,148,149
 885 402 885 402 886.5 418.5 c 128,-1,150
 888 435 888 435 888 452 c 0,151,152
 886 474 886 474 883 496.5 c 128,-1,153
 880 519 880 519 878 542 c 0,154,155
 878 547 878 547 876 548.5 c 128,-1,156
 874 550 874 550 869 550 c 0,157,158
 820 550 820 550 771 550 c 128,-1,159
 722 550 722 550 673 550 c 0,160,161
 670 550 670 550 667 551 c 128,-1,162
 664 552 664 552 662 554 c 0,163,164
 657 560 657 560 652 565 c 128,-1,165
 647 570 647 570 642 574 c 0,166,167
 640 577 640 577 638.5 579.5 c 128,-1,168
 637 582 637 582 637 586 c 0,169,170
 637 635 637 635 637 683.5 c 128,-1,171
 637 732 637 732 638 781 c 0,172,173
 638 786 638 786 636 788.5 c 128,-1,174
 634 791 634 791 629 791 c 0,175,176
 628 791 628 791 627.5 791 c 128,-1,177
 627 791 627 791 626 791 c 0,178,179
 602 796 602 796 577.5 798.5 c 128,-1,180
 553 801 553 801 528 800 c 0,181,182
 504 800 504 800 480.5 796.5 c 128,-1,183
 457 793 457 793 433 791 c 0,184,185
 429 790 429 790 427 788 c 128,-1,186
 425 786 425 786 425 782 c 0,187,188
 426 733 426 733 426 684 c 128,-1,189
 426 635 426 635 426 586 c 0,190,191
 426 582 426 582 425 579.5 c 128,-1,192
 424 577 424 577 421 574 c 0,193,194
 416 570 416 570 411 564.5 c 128,-1,195
 406 559 406 559 400 554 c 0,196,197
 398 553 398 553 395.5 551.5 c 128,-1,198
 393 550 393 550 391 550 c 0,199,200
 372 550 372 550 353 550 c 128,-1,201
 334 550 334 550 315 550 c 0,202,203
 284 550 284 550 253.5 550 c 128,-1,204
 223 550 223 550 193 550 c 0,205,206
 188 550 188 550 186 548 c 128,-1,207
 184 546 184 546 183 542 c 0,208,209
 183 537 183 537 182 532.5 c 128,-1,210
 181 528 181 528 181 524 c 0,211,212
 179 502 179 502 176.5 480.5 c 128,-1,213
 174 459 174 459 174 438 c 0,214,215
 174 414 174 414 177.5 391 c 128,-1,216
 181 368 181 368 184 345 c 0,217,218
 184 341 184 341 185.5 339.5 c 128,-1,219
 187 338 187 338 192 338 c 0,220,221
 216 338 216 338 241 338 c 128,-1,222
 266 338 266 338 291 338 c 0,97,98
583 243 m 1,223,224
 583 221 583 221 583 199 c 128,-1,225
 583 177 583 177 583 155 c 0,226,227
 583 152 583 152 582 150 c 128,-1,228
 581 148 581 148 578 147 c 0,229,230
 565 146 565 146 551.5 144.5 c 128,-1,231
 538 143 538 143 525 143 c 0,232,233
 515 143 515 143 505.5 144.5 c 128,-1,234
 496 146 496 146 486 147 c 0,235,236
 482 147 482 147 481 149.5 c 128,-1,237
 480 152 480 152 480 156 c 0,238,239
 480 199 480 199 480 242 c 128,-1,240
 480 285 480 285 480 328 c 0,241,242
 480 333 480 333 478.5 336.5 c 128,-1,243
 477 340 477 340 474 343 c 0,244,245
 462 354 462 354 451 365.5 c 128,-1,246
 440 377 440 377 429 388 c 0,247,248
 426 391 426 391 423.5 392 c 128,-1,249
 421 393 421 393 417 393 c 0,250,251
 374 393 374 393 330.5 393 c 128,-1,252
 287 393 287 393 244 393 c 0,253,254
 237 393 237 393 235.5 394 c 128,-1,255
 234 395 234 395 234 402 c 0,256,257
 233 411 233 411 231.5 419.5 c 128,-1,258
 230 428 230 428 230 437 c 0,259,260
 230 448 230 448 231 459 c 128,-1,261
 232 470 232 470 233 481 c 0,262,263
 235 492 235 492 237.5 493.5 c 128,-1,264
 240 495 240 495 250 495 c 0,265,266
 292 495 292 495 334 495 c 128,-1,267
 376 495 376 495 417 495 c 0,268,269
 421 495 421 495 424 496.5 c 128,-1,270
 427 498 427 498 429 500 c 0,271,272
 441 512 441 512 452.5 523.5 c 128,-1,273
 464 535 464 535 476 547 c 0,274,275
 478 549 478 549 479 551.5 c 128,-1,276
 480 554 480 554 480 557 c 0,277,278
 480 601 480 601 480 644 c 128,-1,279
 480 687 480 687 480 730 c 0,280,281
 480 737 480 737 481 738 c 128,-1,282
 482 739 482 739 489 740 c 256,283,284
 496 741 496 741 503 741.5 c 128,-1,285
 510 742 510 742 516 743 c 0,286,287
 532 746 532 746 547 743.5 c 128,-1,288
 562 741 562 741 577 739 c 0,289,290
 581 739 581 739 581.5 736.5 c 128,-1,291
 582 734 582 734 582 731 c 0,292,293
 582 688 582 688 582 645 c 128,-1,294
 582 602 582 602 582 559 c 0,295,296
 582 555 582 555 583.5 551.5 c 128,-1,297
 585 548 585 548 588 545 c 0,298,299
 599 534 599 534 610.5 522.5 c 128,-1,300
 622 511 622 511 633 500 c 0,301,302
 636 497 636 497 639 496 c 128,-1,303
 642 495 642 495 645 495 c 0,304,305
 688 495 688 495 731 495 c 128,-1,306
 774 495 774 495 817 495 c 0,307,308
 824 495 824 495 825 494 c 128,-1,309
 826 493 826 493 827 486 c 0,310,311
 828 477 828 477 829.5 468.5 c 128,-1,312
 831 460 831 460 831 451 c 0,313,314
 831 440 831 440 830 429 c 128,-1,315
 829 418 829 418 827 407 c 0,316,317
 826 396 826 396 823.5 394 c 128,-1,318
 821 392 821 392 810 392 c 0,319,320
 769 392 769 392 727.5 392 c 128,-1,321
 686 392 686 392 645 393 c 0,322,323
 641 393 641 393 638.5 391.5 c 128,-1,324
 636 390 636 390 633 388 c 0,325,326
 622 376 622 376 610.5 364.5 c 128,-1,327
 599 353 599 353 587 341 c 0,328,329
 584 339 584 339 583 336.5 c 128,-1,330
 582 334 582 334 582 330 c 0,331,332
 583 309 583 309 583 287 c 128,-1,333
 583 265 583 265 583 243 c 1,334,-1
 583 243 l 1,223,224
EndSplineSet
Validated: 37
EndChar

StartChar: five
Encoding: 53 53 19
Width: 1024
Flags: W
LayerCount: 2
Fore
SplineSet
423 211 m 1,0,1
 396 237 396 237 369.5 263.5 c 128,-1,2
 343 290 343 290 317 316 c 1,3,4
 367 366 367 366 417 416 c 128,-1,5
 467 466 467 466 517 516 c 1,6,7
 543 489 543 489 569.5 462.5 c 128,-1,8
 596 436 596 436 622 410 c 1,9,10
 573 360 573 360 523 310 c 128,-1,11
 473 260 473 260 423 211 c 1,0,1
746 287 m 1,12,13
 696 237 696 237 646.5 187 c 128,-1,14
 597 137 597 137 547 87 c 1,15,16
 521 113 521 113 494.5 139.5 c 128,-1,17
 468 166 468 166 441 193 c 1,18,19
 491 243 491 243 541 292.5 c 128,-1,20
 591 342 591 342 641 392 c 1,21,22
 667 366 667 366 693.5 339.5 c 128,-1,23
 720 313 720 313 746 287 c 1,24,-1
 746 287 l 1,12,13
193 440 m 1,25,26
 243 490 243 490 293 540 c 128,-1,27
 343 590 343 590 394 641 c 1,28,29
 394 640 394 640 395.5 639 c 128,-1,30
 397 638 397 638 398 637 c 0,31,32
 422 613 422 613 446 589 c 128,-1,33
 470 565 470 565 494 541 c 0,34,35
 497 538 497 538 497.5 536 c 128,-1,36
 498 534 498 534 495 531 c 0,37,38
 446 483 446 483 398 435 c 128,-1,39
 350 387 350 387 302 339 c 0,40,41
 301 338 301 338 300 337 c 128,-1,42
 299 336 299 336 298 335 c 1,43,44
 272 362 272 362 245.5 388 c 128,-1,45
 219 414 219 414 193 440 c 1,46,-1
 193 440 l 1,25,26
424 671 m 1,47,48
 437 681 437 681 450.5 691.5 c 128,-1,49
 464 702 464 702 477 711 c 0,50,51
 499 727 499 727 522 741.5 c 128,-1,52
 545 756 545 756 570 766 c 0,53,54
 579 770 579 770 588.5 773 c 128,-1,55
 598 776 598 776 608 775 c 0,56,57
 620 775 620 775 626.5 769 c 128,-1,58
 633 763 633 763 632 750 c 0,59,60
 632 744 632 744 631 737.5 c 128,-1,61
 630 731 630 731 628 725 c 0,62,63
 622 705 622 705 612 686.5 c 128,-1,64
 602 668 602 668 590 651 c 0,65,66
 576 630 576 630 560.5 610 c 128,-1,67
 545 590 545 590 530 570 c 2,68,69
 530 570 530 570 529 569 c 128,-1,70
 528 568 528 568 528 567 c 1,71,72
 502 593 502 593 476.5 619 c 128,-1,73
 451 645 451 645 424 671 c 1,74,-1
 424 671 l 1,47,48
652 443 m 1,75,76
 626 469 626 469 600.5 494.5 c 128,-1,77
 575 520 575 520 549 546 c 1,78,79
 556 552 556 552 563 557.5 c 128,-1,80
 570 563 570 563 577 569 c 0,81,82
 600 586 600 586 623.5 602.5 c 128,-1,83
 647 619 647 619 673 632 c 0,84,85
 684 637 684 637 696 641.5 c 128,-1,86
 708 646 708 646 719 650 c 0,87,88
 723 651 723 651 727.5 651 c 128,-1,89
 732 651 732 651 736 651 c 0,90,91
 746 650 746 650 751.5 644 c 128,-1,92
 757 638 757 638 757 627 c 0,93,94
 758 617 758 617 755 607.5 c 128,-1,95
 752 598 752 598 748 589 c 0,96,97
 738 564 738 564 724 541.5 c 128,-1,98
 710 519 710 519 695 498 c 0,99,100
 685 485 685 485 675.5 472.5 c 128,-1,101
 666 460 666 460 656 447 c 0,102,103
 655 446 655 446 654 445 c 128,-1,104
 653 444 653 444 652 443 c 1,75,76
776 318 m 1,105,106
 773 320 773 320 771 322 c 128,-1,107
 769 324 769 324 767 326 c 0,108,109
 745 349 745 349 722.5 371 c 128,-1,110
 700 393 700 393 678 415 c 0,111,112
 674 419 674 419 674.5 421 c 128,-1,113
 675 423 675 423 678 426 c 0,114,115
 708 450 708 450 739 472.5 c 128,-1,116
 770 495 770 495 805 511 c 0,117,118
 816 517 816 517 828.5 521.5 c 128,-1,119
 841 526 841 526 854 526 c 0,120,121
 868 527 868 527 875 520 c 128,-1,122
 882 513 882 513 881 499 c 0,123,124
 881 486 881 486 876.5 474 c 128,-1,125
 872 462 872 462 866 450 c 0,126,127
 851 419 851 419 831.5 391 c 128,-1,128
 812 363 812 363 791 337 c 0,129,130
 787 332 787 332 783.5 327.5 c 128,-1,131
 780 323 780 323 776 318 c 1,132,-1
 776 318 l 1,105,106
397 148 m 1,133,134
 402 153 402 153 407 158 c 128,-1,135
 412 163 412 163 417 168 c 0,136,137
 418 168 418 168 419 167 c 128,-1,138
 420 166 420 166 421 165 c 0,139,140
 446 140 446 140 470.5 115.5 c 128,-1,141
 495 91 495 91 519 67 c 0,142,143
 522 64 522 64 522 62 c 128,-1,144
 522 60 522 60 519 57 c 0,145,146
 515 53 515 53 511 49 c 128,-1,147
 507 45 507 45 503 41 c 1,148,149
 476 68 476 68 449.5 94.5 c 128,-1,150
 423 121 423 121 397 148 c 1,151,-1
 397 148 l 1,133,134
398 186 m 1,152,153
 393 182 393 182 388 176.5 c 128,-1,154
 383 171 383 171 377 166 c 1,155,156
 370 173 370 173 362.5 180.5 c 128,-1,157
 355 188 355 188 348 195 c 0,158,159
 330 213 330 213 312 231 c 128,-1,160
 294 249 294 249 276 267 c 0,161,162
 273 270 273 270 273 272 c 128,-1,163
 273 274 273 274 276 277 c 0,164,165
 280 281 280 281 284 285 c 128,-1,166
 288 289 288 289 291 293 c 1,167,168
 318 266 318 266 345 239.5 c 128,-1,169
 372 213 372 213 398 186 c 1,170,-1
 398 186 l 1,152,153
273 311 m 1,171,172
 268 306 268 306 263 301 c 128,-1,173
 258 296 258 296 252 290 c 1,174,175
 246 296 246 296 239.5 303 c 128,-1,176
 233 310 233 310 226 317 c 0,177,178
 208 335 208 335 189.5 354 c 128,-1,179
 171 373 171 373 152 391 c 0,180,181
 149 394 149 394 149 396 c 128,-1,182
 149 398 149 398 152 401 c 0,183,184
 156 405 156 405 160 409 c 128,-1,185
 164 413 164 413 167 417 c 1,186,187
 194 390 194 390 220.5 363.5 c 128,-1,188
 247 337 247 337 273 311 c 1,189,-1
 273 311 l 1,171,172
EndSplineSet
Validated: 5
EndChar

StartChar: six
Encoding: 54 54 20
Width: 1024
Flags: W
LayerCount: 2
Fore
SplineSet
467 435 m 1,0,1
 463 438 463 438 459.5 441 c 128,-1,2
 456 444 456 444 453 447 c 0,3,4
 452 448 452 448 451.5 450.5 c 128,-1,5
 451 453 451 453 452 453 c 0,6,7
 459 461 459 461 467 469 c 128,-1,8
 475 477 475 477 482 484 c 0,9,10
 483 484 483 484 483.5 484 c 128,-1,11
 484 484 484 484 484 484 c 2,12,13
 487 482 487 482 490.5 479 c 128,-1,14
 494 476 494 476 496 476 c 0,15,16
 502 476 502 476 507.5 478 c 128,-1,17
 513 480 513 480 517 485 c 0,18,19
 519 486 519 486 520 487.5 c 128,-1,20
 521 489 521 489 523 490 c 0,21,22
 531 496 531 496 534 504 c 128,-1,23
 537 512 537 512 539 521 c 0,24,25
 539 523 539 523 538.5 524.5 c 128,-1,26
 538 526 538 526 537 527 c 0,27,28
 535 530 535 530 532.5 532 c 128,-1,29
 530 534 530 534 528 536 c 0,30,31
 522 542 522 542 522 549.5 c 128,-1,32
 522 557 522 557 528 563 c 0,33,34
 538 573 538 573 548.5 583 c 128,-1,35
 559 593 559 593 569 603 c 0,36,37
 571 606 571 606 573 606.5 c 128,-1,38
 575 607 575 607 578 606 c 0,39,40
 585 606 585 606 590.5 603 c 128,-1,41
 596 600 596 600 600 595 c 0,42,43
 603 591 603 591 606 587.5 c 128,-1,44
 609 584 609 584 612 581 c 1,45,46
 629 598 629 598 645 614.5 c 128,-1,47
 661 631 661 631 678 647 c 1,48,49
 677 648 677 648 676 649 c 128,-1,50
 675 650 675 650 674 651 c 0,51,52
 664 661 664 661 654 671 c 128,-1,53
 644 681 644 681 634 691 c 0,54,55
 628 697 628 697 628 704 c 128,-1,56
 628 711 628 711 634 718 c 0,57,58
 652 736 652 736 670 753.5 c 128,-1,59
 688 771 688 771 705 789 c 0,60,61
 710 794 710 794 715 795 c 128,-1,62
 720 796 720 796 726 796 c 0,63,64
 727 796 727 796 728.5 795 c 128,-1,65
 730 794 730 794 731 793 c 0,66,67
 767 756 767 756 803.5 719.5 c 128,-1,68
 840 683 840 683 877 647 c 0,69,70
 878 645 878 645 879.5 643 c 128,-1,71
 881 641 881 641 881 639 c 0,72,73
 896 592 896 592 910.5 544.5 c 128,-1,74
 925 497 925 497 940 450 c 0,75,76
 940 447 940 447 939.5 444.5 c 128,-1,77
 939 442 939 442 937 440 c 0,78,79
 932 435 932 435 926.5 429.5 c 128,-1,80
 921 424 921 424 916 419 c 0,81,82
 913 416 913 416 911 416 c 128,-1,83
 909 416 909 416 906 419 c 0,84,85
 879 446 879 446 851.5 473.5 c 128,-1,86
 824 501 824 501 797 528 c 0,87,88
 787 538 787 538 776.5 548.5 c 128,-1,89
 766 559 766 559 756 569 c 0,90,91
 754 572 754 572 751.5 572 c 128,-1,92
 749 572 749 572 746 569 c 0,93,94
 732 555 732 555 718 541 c 128,-1,95
 704 527 704 527 690 513 c 0,96,97
 689 512 689 512 688 510.5 c 128,-1,98
 687 509 687 509 685 507 c 1,99,100
 688 504 688 504 691.5 502 c 128,-1,101
 695 500 695 500 697 497 c 0,102,103
 726 468 726 468 755 439 c 128,-1,104
 784 410 784 410 813 382 c 0,105,106
 816 379 816 379 815.5 377 c 128,-1,107
 815 375 815 375 813 371 c 0,108,109
 806 363 806 363 798 361 c 128,-1,110
 790 359 790 359 780 362 c 0,111,112
 758 368 758 368 735.5 372.5 c 128,-1,113
 713 377 713 377 691 382 c 0,114,115
 688 383 688 383 685 382.5 c 128,-1,116
 682 382 682 382 680 380 c 0,117,118
 666 371 666 371 652.5 362 c 128,-1,119
 639 353 639 353 626 343 c 1,120,121
 630 338 630 338 628 333.5 c 128,-1,122
 626 329 626 329 621 325 c 0,123,124
 617 321 617 321 613.5 317.5 c 128,-1,125
 610 314 610 314 606 310 c 256,126,127
 602 306 602 306 598.5 306 c 128,-1,128
 595 306 595 306 591 309 c 0,129,130
 590 309 590 309 588 309.5 c 128,-1,131
 586 310 586 310 585 309 c 0,132,133
 572 295 572 295 558 281 c 128,-1,134
 544 267 544 267 530 253 c 1,135,136
 530 253 530 253 530 253 c 129,-1,137
 530 253 530 253 530 252 c 0,138,139
 535 248 535 248 533.5 245 c 128,-1,140
 532 242 532 242 528 239 c 0,141,142
 526 238 526 238 524 236 c 128,-1,143
 522 234 522 234 521 232 c 0,144,145
 518 228 518 228 515 227.5 c 128,-1,146
 512 227 512 227 508 232 c 1,147,148
 502 225 502 225 495.5 219.5 c 128,-1,149
 489 214 489 214 484 207 c 0,150,151
 481 205 481 205 479 205 c 128,-1,152
 477 205 477 205 475 207 c 0,153,154
 468 215 468 215 461 221.5 c 128,-1,155
 454 228 454 228 447 236 c 0,156,157
 444 238 444 238 442 238 c 128,-1,158
 440 238 440 238 437 236 c 0,159,160
 413 213 413 213 391.5 188.5 c 128,-1,161
 370 164 370 164 348 139 c 0,162,163
 320 107 320 107 290 77.5 c 128,-1,164
 260 48 260 48 228 20 c 0,165,166
 221 15 221 15 214 14 c 128,-1,167
 207 13 207 13 199 14 c 0,168,169
 167 18 167 18 148 41 c 128,-1,170
 129 64 129 64 131 95 c 0,171,172
 131 100 131 100 133.5 104.5 c 128,-1,173
 136 109 136 109 138 113 c 0,174,175
 166 145 166 145 195.5 175.5 c 128,-1,176
 225 206 225 206 257 234 c 0,177,178
 270 245 270 245 284 256 c 128,-1,179
 298 267 298 267 311 279 c 0,180,181
 327 294 327 294 343 309 c 128,-1,182
 359 324 359 324 374 340 c 0,183,184
 391 356 391 356 407.5 372.5 c 128,-1,185
 424 389 424 389 441 406 c 0,186,187
 448 412 448 412 454 419.5 c 128,-1,188
 460 427 460 427 467 435 c 1,189,-1
 467 435 l 1,0,1
482 257 m 1,190,191
 477 265 477 265 477 267 c 128,-1,192
 477 269 477 269 484 276 c 2,193,194
 484 276 484 276 484.5 276.5 c 128,-1,195
 485 277 485 277 486 278 c 0,196,197
 492 284 492 284 494 284.5 c 128,-1,198
 496 285 496 285 502 280 c 1,199,200
 517 295 517 295 531.5 309.5 c 128,-1,201
 546 324 546 324 561 339 c 1,202,203
 561 339 561 339 560.5 339.5 c 128,-1,204
 560 340 560 340 559 341 c 0,205,206
 552 348 552 348 551 347.5 c 128,-1,207
 550 347 550 347 543 341 c 0,208,209
 529 329 529 329 517.5 314.5 c 128,-1,210
 506 300 506 300 488 291 c 0,211,212
 482 288 482 288 477.5 282.5 c 128,-1,213
 473 277 473 277 467 271 c 1,214,215
 471 268 471 268 474.5 264.5 c 128,-1,216
 478 261 478 261 482 257 c 1,217,-1
 482 257 l 1,190,191
362 229 m 1,218,219
 369 229 369 229 374.5 234 c 128,-1,220
 380 239 380 239 380 247 c 0,221,222
 380 254 380 254 375 259.5 c 128,-1,223
 370 265 370 265 362 265 c 0,224,225
 355 265 355 265 349.5 259.5 c 128,-1,226
 344 254 344 254 344 247 c 0,227,228
 344 239 344 239 349 234 c 128,-1,229
 354 229 354 229 362 229 c 1,230,-1
 362 229 l 1,218,219
200 103 m 1,231,232
 192 103 192 103 187 97.5 c 128,-1,233
 182 92 182 92 182 85 c 0,234,235
 182 77 182 77 187.5 72 c 128,-1,236
 193 67 193 67 200 67 c 0,237,238
 208 67 208 67 213 72.5 c 128,-1,239
 218 78 218 78 218 85 c 0,240,241
 218 93 218 93 212.5 98 c 128,-1,242
 207 103 207 103 200 103 c 1,243,-1
 200 103 l 1,231,232
EndSplineSet
Validated: 37
EndChar

StartChar: numbersign
Encoding: 35 35 21
Width: 1024
Flags: W
LayerCount: 2
Fore
SplineSet
863 826 m 1,0,1
 865 826 865 826 866 825 c 128,-1,2
 867 824 867 824 868 824 c 0,3,4
 886 812 886 812 901 797 c 128,-1,5
 916 782 916 782 927 764 c 0,6,7
 929 761 929 761 929 758 c 128,-1,8
 929 755 929 755 927 751 c 0,9,10
 897 700 897 700 867.5 648.5 c 128,-1,11
 838 597 838 597 808 546 c 0,12,13
 803 538 803 538 796 531 c 128,-1,14
 789 524 789 524 782 518 c 0,15,16
 782 517 782 517 779 517.5 c 128,-1,17
 776 518 776 518 775 519 c 0,18,19
 754 531 754 531 735 546.5 c 128,-1,20
 716 562 716 562 699 578 c 0,21,22
 677 599 677 599 658.5 621.5 c 128,-1,23
 640 644 640 644 624 668 c 0,24,25
 622 672 622 672 622 674 c 128,-1,26
 622 676 622 676 625 679 c 0,27,28
 631 684 631 684 635.5 689.5 c 128,-1,29
 640 695 640 695 646 700 c 0,30,31
 654 705 654 705 662 710 c 128,-1,32
 670 715 670 715 679 720 c 0,33,34
 714 741 714 741 749 761 c 128,-1,35
 784 781 784 781 820 802 c 0,36,37
 829 807 829 807 839 812.5 c 128,-1,38
 849 818 849 818 858 824 c 0,39,40
 860 825 860 825 861 825.5 c 128,-1,41
 862 826 862 826 863 826 c 1,42,-1
 863 826 l 1,0,1
489 452 m 1,43,44
 493 446 493 446 496 441 c 128,-1,45
 499 436 499 436 502 432 c 0,46,47
 512 419 512 419 523 408.5 c 128,-1,48
 534 398 534 398 548 390 c 0,49,50
 553 387 553 387 553.5 385.5 c 128,-1,51
 554 384 554 384 549 380 c 0,52,53
 510 349 510 349 476 312.5 c 128,-1,54
 442 276 442 276 413 235 c 0,55,56
 396 211 396 211 382.5 185.5 c 128,-1,57
 369 160 369 160 361 131 c 0,58,59
 360 128 360 128 359 124 c 128,-1,60
 358 120 358 120 358 117 c 0,61,62
 358 107 358 107 352.5 101 c 128,-1,63
 347 95 347 95 340 89 c 0,64,65
 340 88 340 88 338 88.5 c 128,-1,66
 336 89 336 89 335 89 c 256,67,68
 334 89 334 89 333.5 90 c 128,-1,69
 333 91 333 91 333 91 c 1,70,71
 299 126 299 126 264.5 160 c 128,-1,72
 230 194 230 194 196 228 c 0,73,74
 193 232 193 232 193 234 c 128,-1,75
 193 236 193 236 196 239 c 0,76,77
 202 246 202 246 209 249.5 c 128,-1,78
 216 253 216 253 225 254 c 0,79,80
 244 257 244 257 262.5 265 c 128,-1,81
 281 273 281 273 298 283 c 0,82,83
 343 308 343 308 382 340.5 c 128,-1,84
 421 373 421 373 455 411 c 0,85,86
 463 419 463 419 470.5 428 c 128,-1,87
 478 437 478 437 486 446 c 0,88,89
 487 447 487 447 487.5 448.5 c 128,-1,90
 488 450 488 450 489 452 c 1,91,-1
 489 452 l 1,43,44
608 663 m 1,92,93
 638 612 638 612 678 572.5 c 128,-1,94
 718 533 718 533 769 503 c 1,95,96
 760 495 760 495 752.5 487 c 128,-1,97
 745 479 745 479 736 474 c 0,98,99
 715 461 715 461 692.5 453 c 128,-1,100
 670 445 670 445 646 443 c 0,101,102
 645 443 645 443 644 442.5 c 128,-1,103
 643 442 643 442 642 442 c 0,104,105
 638 439 638 439 633.5 439.5 c 128,-1,106
 629 440 629 440 625 443 c 0,107,108
 601 459 601 459 581 479 c 128,-1,109
 561 499 561 499 546 524 c 0,110,111
 544 527 544 527 543.5 530 c 128,-1,112
 543 533 543 533 546 537 c 0,113,114
 546 538 546 538 546.5 539.5 c 128,-1,115
 547 541 547 541 547 543 c 0,116,117
 550 566 550 566 557.5 587.5 c 128,-1,118
 565 609 565 609 576 629 c 0,119,120
 580 634 580 634 585 639 c 128,-1,121
 590 644 590 644 595 649 c 0,122,123
 598 652 598 652 601.5 655.5 c 128,-1,124
 605 659 605 659 608 663 c 1,125,-1
 608 663 l 1,92,93
466 755 m 1,126,127
 458 755 458 755 450 755 c 128,-1,128
 442 755 442 755 434 755 c 0,129,130
 431 755 431 755 429 756.5 c 128,-1,131
 427 758 427 758 426 762 c 0,132,133
 423 775 423 775 423 788 c 128,-1,134
 423 801 423 801 425 814 c 0,135,136
 426 819 426 819 428.5 821.5 c 128,-1,137
 431 824 431 824 437 823 c 0,138,139
 452 823 452 823 467 823 c 128,-1,140
 482 823 482 823 498 823 c 0,141,142
 501 823 501 823 502.5 824.5 c 128,-1,143
 504 826 504 826 504 830 c 0,144,145
 504 845 504 845 504 860.5 c 128,-1,146
 504 876 504 876 504 891 c 0,147,148
 504 896 504 896 505.5 898.5 c 128,-1,149
 507 901 507 901 512 901 c 0,150,151
 526 904 526 904 539 904 c 128,-1,152
 552 904 552 904 566 900 c 0,153,154
 570 899 570 899 570.5 897 c 128,-1,155
 571 895 571 895 571 892 c 0,156,157
 571 877 571 877 571 862 c 128,-1,158
 571 847 571 847 571 831 c 0,159,160
 571 827 571 827 573 825 c 128,-1,161
 575 823 575 823 580 823 c 0,162,163
 595 823 595 823 610 823 c 128,-1,164
 625 823 625 823 640 823 c 0,165,166
 644 823 644 823 646 821.5 c 128,-1,167
 648 820 648 820 649 817 c 0,168,169
 652 803 652 803 652 790 c 128,-1,170
 652 777 652 777 649 764 c 0,171,172
 648 759 648 759 646 757 c 128,-1,173
 644 755 644 755 639 755 c 0,174,175
 624 756 624 756 608.5 755.5 c 128,-1,176
 593 755 593 755 578 756 c 0,177,178
 574 756 574 756 572.5 754 c 128,-1,179
 571 752 571 752 571 749 c 0,180,181
 571 733 571 733 571 718 c 128,-1,182
 571 703 571 703 572 688 c 0,183,184
 572 683 572 683 570 680.5 c 128,-1,185
 568 678 568 678 563 678 c 0,186,187
 550 675 550 675 537.5 675 c 128,-1,188
 525 675 525 675 512 678 c 0,189,190
 507 679 507 679 505.5 681 c 128,-1,191
 504 683 504 683 504 687 c 0,192,193
 504 703 504 703 504 718 c 128,-1,194
 504 733 504 733 504 748 c 0,195,196
 504 753 504 753 502.5 754.5 c 128,-1,197
 501 756 501 756 497 756 c 0,198,199
 489 755 489 755 481.5 755 c 128,-1,200
 474 755 474 755 466 755 c 1,201,202
 466 755 466 755 466 755 c 129,-1,203
 466 755 466 755 466 755 c 1,204,-1
 466 755 l 1,126,127
183 156 m 1,205,206
 171 149 171 149 159 142.5 c 128,-1,207
 147 136 147 136 137 128 c 0,208,209
 126 120 126 120 117 110.5 c 128,-1,210
 108 101 108 101 97 91 c 1,211,212
 100 97 100 97 102.5 103 c 128,-1,213
 105 109 105 109 108 114 c 0,214,215
 124 145 124 145 147 169 c 128,-1,216
 170 193 170 193 199 212 c 0,217,218
 202 215 202 215 203.5 213.5 c 128,-1,219
 205 212 205 212 206 210 c 0,220,221
 226 178 226 178 251 152 c 128,-1,222
 276 126 276 126 306 105 c 0,223,224
 315 99 315 99 315.5 96.5 c 128,-1,225
 316 94 316 94 307 86 c 0,226,227
 292 74 292 74 276.5 62 c 128,-1,228
 261 50 261 50 246 38 c 0,229,230
 234 28 234 28 219.5 23.5 c 128,-1,231
 205 19 205 19 191 13 c 0,232,233
 186 11 186 11 180.5 9 c 128,-1,234
 175 7 175 7 170 5 c 1,235,236
 190 21 190 21 206 41 c 128,-1,237
 222 61 222 61 237 82 c 1,238,239
 193 66 193 66 159 38.5 c 128,-1,240
 125 11 125 11 98 -27 c 1,241,242
 114 22 114 22 136 67 c 128,-1,243
 158 112 158 112 183 156 c 1,244,-1
 183 156 l 1,205,206
346 630 m 1,245,246
 346 625 346 625 346.5 619.5 c 128,-1,247
 347 614 347 614 346 609 c 0,248,249
 346 605 346 605 348 603.5 c 128,-1,250
 350 602 350 602 354 602 c 0,251,252
 364 602 364 602 375 602 c 128,-1,253
 386 602 386 602 397 602 c 0,254,255
 400 602 400 602 402 600.5 c 128,-1,256
 404 599 404 599 404 596 c 0,257,258
 405 587 405 587 405 577.5 c 128,-1,259
 405 568 405 568 405 559 c 0,260,261
 405 555 405 555 402.5 553 c 128,-1,262
 400 551 400 551 395 552 c 0,263,264
 385 552 385 552 374 552 c 128,-1,265
 363 552 363 552 353 552 c 0,266,267
 349 552 349 552 347.5 550.5 c 128,-1,268
 346 549 346 549 346 545 c 0,269,270
 347 534 347 534 346.5 523 c 128,-1,271
 346 512 346 512 346 502 c 0,272,273
 346 498 346 498 345 496 c 128,-1,274
 344 494 344 494 340 493 c 0,275,276
 331 492 331 492 321 491.5 c 128,-1,277
 311 491 311 491 302 493 c 0,278,279
 298 494 298 494 297 496 c 128,-1,280
 296 498 296 498 296 501 c 0,281,282
 296 512 296 512 295.5 523 c 128,-1,283
 295 534 295 534 296 546 c 0,284,285
 296 549 296 549 294.5 550.5 c 128,-1,286
 293 552 293 552 289 552 c 0,287,288
 278 552 278 552 267 552 c 128,-1,289
 256 552 256 552 245 552 c 0,290,291
 242 552 242 552 240 553.5 c 128,-1,292
 238 555 238 555 237 558 c 0,293,294
 235 568 235 568 235 577.5 c 128,-1,295
 235 587 235 587 237 596 c 0,296,297
 238 600 238 600 239.5 601.5 c 128,-1,298
 241 603 241 603 245 602 c 0,299,300
 256 602 256 602 267.5 602 c 128,-1,301
 279 602 279 602 290 602 c 0,302,303
 293 602 293 602 294.5 603.5 c 128,-1,304
 296 605 296 605 296 608 c 0,305,306
 295 619 295 619 295.5 630.5 c 128,-1,307
 296 642 296 642 296 653 c 0,308,309
 296 656 296 656 297 658 c 128,-1,310
 298 660 298 660 301 661 c 0,311,312
 311 663 311 663 320.5 663 c 128,-1,313
 330 663 330 663 340 661 c 0,314,315
 343 660 343 660 344.5 658 c 128,-1,316
 346 656 346 656 346 653 c 0,317,318
 346 647 346 647 346 641.5 c 128,-1,319
 346 636 346 636 346 630 c 1,320,-1
 346 630 l 1,245,246
208 349 m 1,321,322
 198 349 198 349 189 349 c 128,-1,323
 180 349 180 349 171 348 c 0,324,325
 167 348 167 348 165 349.5 c 128,-1,326
 163 351 163 351 163 355 c 0,327,328
 163 362 163 362 163 368.5 c 128,-1,329
 163 375 163 375 163 381 c 0,330,331
 163 385 163 385 165 386.5 c 128,-1,332
 167 388 167 388 171 388 c 0,333,334
 178 388 178 388 185.5 388 c 128,-1,335
 193 388 193 388 200 388 c 0,336,337
 205 387 205 387 207 389 c 128,-1,338
 209 391 209 391 208 396 c 0,339,340
 208 403 208 403 208 410.5 c 128,-1,341
 208 418 208 418 208 425 c 0,342,343
 208 429 208 429 209.5 430.5 c 128,-1,344
 211 432 211 432 214 433 c 0,345,346
 221 433 221 433 227.5 433 c 128,-1,347
 234 433 234 433 241 433 c 0,348,349
 244 432 244 432 245.5 430 c 128,-1,350
 247 428 247 428 247 425 c 0,351,352
 247 417 247 417 247 409.5 c 128,-1,353
 247 402 247 402 247 395 c 0,354,355
 247 391 247 391 248.5 389.5 c 128,-1,356
 250 388 250 388 254 388 c 0,357,358
 262 388 262 388 269.5 388 c 128,-1,359
 277 388 277 388 285 388 c 0,360,361
 288 388 288 388 290 386.5 c 128,-1,362
 292 385 292 385 292 382 c 0,363,364
 292 375 292 375 292 368 c 128,-1,365
 292 361 292 361 292 355 c 0,366,367
 292 351 292 351 290 349.5 c 128,-1,368
 288 348 288 348 285 348 c 0,369,370
 277 349 277 349 269 348.5 c 128,-1,371
 261 348 261 348 253 349 c 0,372,373
 250 349 250 349 248.5 347.5 c 128,-1,374
 247 346 247 346 247 343 c 0,375,376
 247 335 247 335 247 327.5 c 128,-1,377
 247 320 247 320 247 312 c 0,378,379
 247 308 247 308 246 306 c 128,-1,380
 245 304 245 304 241 304 c 0,381,382
 234 303 234 303 227.5 303.5 c 128,-1,383
 221 304 221 304 214 304 c 0,384,385
 211 304 211 304 209.5 306 c 128,-1,386
 208 308 208 308 208 311 c 0,387,388
 208 320 208 320 208 329.5 c 128,-1,389
 208 339 208 339 208 349 c 1,390,-1
 208 349 l 1,321,322
617 429 m 1,391,392
 615 427 615 427 613 426 c 128,-1,393
 611 425 611 425 610 424 c 0,394,395
 601 418 601 418 591.5 411.5 c 128,-1,396
 582 405 582 405 573 398 c 0,397,398
 569 396 569 396 566.5 395.5 c 128,-1,399
 564 395 564 395 560 398 c 0,400,401
 542 409 542 409 527.5 423.5 c 128,-1,402
 513 438 513 438 502 457 c 0,403,404
 500 460 500 460 500.5 463 c 128,-1,405
 501 466 501 466 503 469 c 0,406,407
 510 478 510 478 516 487.5 c 128,-1,408
 522 497 522 497 529 507 c 0,409,410
 530 508 530 508 531 509.5 c 128,-1,411
 532 511 532 511 533 513 c 1,412,413
 547 485 547 485 568 464 c 128,-1,414
 589 443 589 443 617 429 c 1,415,-1
 617 429 l 1,391,392
EndSplineSet
EndChar

StartChar: at
Encoding: 64 64 22
Width: 1024
Flags: W
LayerCount: 2
Fore
SplineSet
650 180 m 1,0,1
 643 183 643 183 637 185.5 c 128,-1,2
 631 188 631 188 625 190 c 0,3,4
 600 199 600 199 574.5 205 c 128,-1,5
 549 211 549 211 523 213 c 0,6,7
 509 215 509 215 495 215.5 c 128,-1,8
 481 216 481 216 467 216 c 0,9,10
 463 216 463 216 462 217.5 c 128,-1,11
 461 219 461 219 461 223 c 0,12,13
 465 264 465 264 473 305 c 128,-1,14
 481 346 481 346 493 385 c 0,15,16
 498 402 498 402 503.5 418.5 c 128,-1,17
 509 435 509 435 515 451 c 0,18,19
 516 453 516 453 517.5 454 c 128,-1,20
 519 455 519 455 521 456 c 0,21,22
 553 471 553 471 586 482.5 c 128,-1,23
 619 494 619 494 652 503 c 0,24,25
 684 511 684 511 715.5 517.5 c 128,-1,26
 747 524 747 524 779 531 c 0,27,28
 781 531 781 531 783.5 530 c 128,-1,29
 786 529 786 529 787 527 c 0,30,31
 795 513 795 513 800.5 498 c 128,-1,32
 806 483 806 483 806 466 c 0,33,34
 806 453 806 453 800.5 441 c 128,-1,35
 795 429 795 429 788 418 c 0,36,37
 778 403 778 403 765.5 391.5 c 128,-1,38
 753 380 753 380 738 371 c 0,39,40
 736 369 736 369 734 367.5 c 128,-1,41
 732 366 732 366 731 363 c 0,42,43
 705 324 705 324 685.5 281.5 c 128,-1,44
 666 239 666 239 654 193 c 0,45,46
 653 190 653 190 652 186.5 c 128,-1,47
 651 183 651 183 650 180 c 1,48,-1
 650 180 l 1,0,1
559 556 m 1,49,50
 559 562 559 562 559 569 c 128,-1,51
 559 576 559 576 559 583 c 0,52,53
 559 594 559 594 559.5 605 c 128,-1,54
 560 616 560 616 560 628 c 0,55,56
 560 635 560 635 565 640 c 128,-1,57
 570 645 570 645 578 645 c 0,58,59
 597 645 597 645 615.5 645 c 128,-1,60
 634 645 634 645 652 645 c 0,61,62
 682 645 682 645 712 644.5 c 128,-1,63
 742 644 742 644 772 644 c 0,64,65
 774 644 774 644 776 644 c 128,-1,66
 778 644 778 644 780 644 c 1,67,68
 765 619 765 619 742.5 607 c 128,-1,69
 720 595 720 595 693 586 c 1,70,71
 713 577 713 577 731 569.5 c 128,-1,72
 749 562 749 562 765 550 c 1,73,74
 700 539 700 539 636.5 520 c 128,-1,75
 573 501 573 501 512 474 c 1,76,77
 511 483 511 483 510.5 491 c 128,-1,78
 510 499 510 499 509 507 c 0,79,80
 503 558 503 558 493 608 c 128,-1,81
 483 658 483 658 464 705 c 0,82,83
 462 711 462 711 459 717 c 128,-1,84
 456 723 456 723 454 729 c 0,85,86
 453 732 453 732 452.5 734.5 c 128,-1,87
 452 737 452 737 452 739 c 0,88,89
 455 753 455 753 461 764 c 128,-1,90
 467 775 467 775 477 784 c 0,91,92
 480 787 480 787 485 788.5 c 128,-1,93
 490 790 490 790 494 790 c 0,94,95
 510 792 510 792 525.5 793.5 c 128,-1,96
 541 795 541 795 557 797 c 0,97,98
 597 801 597 801 637 809 c 128,-1,99
 677 817 677 817 716 828 c 0,100,101
 733 833 733 833 748.5 841 c 128,-1,102
 764 849 764 849 779 860 c 0,103,104
 787 866 787 866 795 871.5 c 128,-1,105
 803 877 803 877 811 883 c 1,106,107
 811 877 811 877 811 870 c 128,-1,108
 811 863 811 863 812 857 c 0,109,110
 812 849 812 849 812.5 841 c 128,-1,111
 813 833 813 833 815 825 c 0,112,113
 816 819 816 819 814 817 c 128,-1,114
 812 815 812 815 808 814 c 0,115,116
 769 803 769 803 730.5 791.5 c 128,-1,117
 692 780 692 780 654 769 c 0,118,119
 634 763 634 763 615 757 c 128,-1,120
 596 751 596 751 576 747 c 0,121,122
 562 743 562 743 552 731.5 c 128,-1,123
 542 720 542 720 542 704 c 0,124,125
 542 681 542 681 542.5 657.5 c 128,-1,126
 543 634 543 634 545 611 c 0,127,128
 546 598 546 598 549.5 585 c 128,-1,129
 553 572 553 572 556 559 c 0,130,131
 556 558 556 558 556.5 557 c 128,-1,132
 557 556 557 556 557 556 c 2,133,134
 558 555 558 555 558.5 555 c 128,-1,135
 559 555 559 555 559 556 c 1,136,-1
 559 556 l 1,49,50
420 38 m 1,137,138
 401 38 401 38 381.5 38 c 128,-1,139
 362 38 362 38 343 38 c 0,140,141
 338 38 338 38 334.5 39.5 c 128,-1,142
 331 41 331 41 328 44 c 0,143,144
 317 55 317 55 313 67.5 c 128,-1,145
 309 80 309 80 308 94 c 0,146,147
 308 98 308 98 313.5 106.5 c 128,-1,148
 319 115 319 115 323 115 c 0,149,150
 326 116 326 116 329 115 c 128,-1,151
 332 114 332 114 335 113 c 0,152,153
 352 106 352 106 368.5 108 c 128,-1,154
 385 110 385 110 400 121 c 0,155,156
 403 124 403 124 406 127.5 c 128,-1,157
 409 131 409 131 411 135 c 0,158,159
 420 151 420 151 429.5 166 c 128,-1,160
 439 181 439 181 451 195 c 0,161,162
 453 198 453 198 455.5 199 c 128,-1,163
 458 200 458 200 462 200 c 0,164,165
 495 200 495 200 526.5 194 c 128,-1,166
 558 188 558 188 590 180 c 0,167,168
 602 177 602 177 613.5 172 c 128,-1,169
 625 167 625 167 637 163 c 0,170,171
 640 162 640 162 641 160 c 128,-1,172
 642 158 642 158 639 155 c 0,173,174
 635 148 635 148 631 140 c 128,-1,175
 627 132 627 132 622 125 c 0,176,177
 601 91 601 91 571 70 c 128,-1,178
 541 49 541 49 503 39 c 0,179,180
 502 38 502 38 500 38 c 128,-1,181
 498 38 498 38 497 38 c 0,182,183
 478 38 478 38 458.5 38 c 128,-1,184
 439 38 439 38 420 38 c 1,185,-1
 420 38 l 1,137,138
279 495 m 1,186,187
 289 520 289 520 299.5 544.5 c 128,-1,188
 310 569 310 569 321 594 c 0,189,190
 320 595 320 595 320 595.5 c 128,-1,191
 320 596 320 596 319 596 c 0,192,193
 313 595 313 595 306.5 594 c 128,-1,194
 300 593 300 593 293 591 c 0,195,196
 252 579 252 579 220.5 554 c 128,-1,197
 189 529 189 529 164 495 c 0,198,199
 153 481 153 481 144.5 466 c 128,-1,200
 136 451 136 451 127 436 c 0,201,202
 125 432 125 432 122.5 429 c 128,-1,203
 120 426 120 426 118 423 c 2,204,205
 118 423 118 423 117.5 423 c 128,-1,206
 117 423 117 423 117 423 c 1,207,208
 121 434 121 434 124.5 444.5 c 128,-1,209
 128 455 128 455 133 465 c 0,210,211
 143 489 143 489 153.5 513 c 128,-1,212
 164 537 164 537 176 561 c 0,213,214
 196 600 196 600 223.5 632.5 c 128,-1,215
 251 665 251 665 288 689 c 0,216,217
 306 701 306 701 326 708.5 c 128,-1,218
 346 716 346 716 368 718 c 0,219,220
 372 718 372 718 373.5 720 c 128,-1,221
 375 722 375 722 377 725 c 0,222,223
 384 743 384 743 392 760.5 c 128,-1,224
 400 778 400 778 407 796 c 0,225,226
 408 798 408 798 409 800 c 128,-1,227
 410 802 410 802 411 805 c 1,228,229
 412 802 412 802 412.5 801 c 128,-1,230
 413 800 413 800 413 799 c 0,231,232
 421 760 421 760 428 721.5 c 128,-1,233
 435 683 435 683 442 644 c 0,234,235
 443 639 443 639 442 635 c 128,-1,236
 441 631 441 631 436 627 c 0,237,238
 398 595 398 595 359.5 562 c 128,-1,239
 321 529 321 529 283 496 c 0,240,241
 282 495 282 495 281.5 494.5 c 128,-1,242
 281 494 281 494 281 494 c 2,243,244
 280 494 280 494 279.5 494.5 c 128,-1,245
 279 495 279 495 279 495 c 1,186,187
147 435 m 1,246,247
 146 428 146 428 145.5 420.5 c 128,-1,248
 145 413 145 413 144 405 c 0,249,250
 142 372 142 372 147 339 c 128,-1,251
 152 306 152 306 168 276 c 0,252,253
 178 256 178 256 192.5 240.5 c 128,-1,254
 207 225 207 225 227 216 c 0,255,256
 232 214 232 214 231.5 211 c 128,-1,257
 231 208 231 208 230 205 c 0,258,259
 224 190 224 190 218 175 c 128,-1,260
 212 160 212 160 206 145 c 0,261,262
 201 134 201 134 196.5 122.5 c 128,-1,263
 192 111 192 111 188 100 c 0,264,265
 185 93 185 93 183 92.5 c 128,-1,266
 181 92 181 92 174 95 c 0,267,268
 151 109 151 109 135 129 c 128,-1,269
 119 149 119 149 110 175 c 0,270,271
 98 208 98 208 95.5 241.5 c 128,-1,272
 93 275 93 275 98 310 c 0,273,274
 100 324 100 324 103 337.5 c 128,-1,275
 106 351 106 351 110 365 c 0,276,277
 115 385 115 385 124.5 402.5 c 128,-1,278
 134 420 134 420 145 436 c 0,279,280
 146 436 146 436 146 436 c 129,-1,281
 146 436 146 436 147 435 c 1,282,-1
 147 435 l 1,246,247
819 736 m 1,283,284
 818 731 818 731 817.5 726.5 c 128,-1,285
 817 722 817 722 816 717 c 0,286,287
 812 703 812 703 807.5 688.5 c 128,-1,288
 803 674 803 674 794 662 c 0,289,290
 792 659 792 659 790 657.5 c 128,-1,291
 788 656 788 656 784 656 c 0,292,293
 734 656 734 656 684 656.5 c 128,-1,294
 634 657 634 657 584 657 c 0,295,296
 580 657 580 657 575.5 656.5 c 128,-1,297
 571 656 571 656 566 654 c 0,298,299
 563 654 563 654 561.5 655 c 128,-1,300
 560 656 560 656 560 659 c 0,301,302
 560 664 560 664 560 670 c 128,-1,303
 560 676 560 676 561 682 c 0,304,305
 562 687 562 687 566 690 c 128,-1,306
 570 693 570 693 575 694 c 0,307,308
 610 700 610 700 645 706 c 128,-1,309
 680 712 680 712 714 718 c 0,310,311
 739 723 739 723 763.5 727 c 128,-1,312
 788 731 788 731 812 735 c 0,313,314
 813 736 813 736 815 736 c 128,-1,315
 817 736 817 736 819 736 c 1,316,-1
 819 736 l 1,283,284
820 804 m 0,317,318
 821 798 821 798 822 792.5 c 128,-1,319
 823 787 823 787 823 781 c 256,320,321
 823 775 823 775 822.5 768.5 c 128,-1,322
 822 762 822 762 822 756 c 0,323,324
 822 753 822 753 820 751 c 128,-1,325
 818 749 818 749 814 748 c 0,326,327
 766 740 766 740 717 731 c 128,-1,328
 668 722 668 722 619 714 c 0,329,330
 606 711 606 711 593 709 c 128,-1,331
 580 707 580 707 567 705 c 0,332,333
 566 704 566 704 564.5 704 c 128,-1,334
 563 704 563 704 562 704 c 0,335,336
 558 715 558 715 562.5 723 c 128,-1,337
 567 731 567 731 579 734 c 0,338,339
 591 738 591 738 603 741.5 c 128,-1,340
 615 745 615 745 627 748 c 0,341,342
 673 762 673 762 719.5 775.5 c 128,-1,343
 766 789 766 789 812 803 c 0,344,345
 814 803 814 803 815.5 803.5 c 128,-1,346
 817 804 817 804 820 804 c 0,317,318
EndSplineSet
Validated: 37
EndChar

StartChar: dollar
Encoding: 36 36 23
Width: 1024
Flags: W
LayerCount: 2
Fore
SplineSet
781 519 m 1,0,1
 780 519 780 519 778.5 520 c 128,-1,2
 777 521 777 521 776 521 c 0,3,4
 739 545 739 545 707 574.5 c 128,-1,5
 675 604 675 604 648 639 c 0,6,7
 642 647 642 647 636.5 655.5 c 128,-1,8
 631 664 631 664 625 671 c 0,9,10
 623 675 623 675 623.5 677 c 128,-1,11
 624 679 624 679 626 682 c 0,12,13
 640 698 640 698 657 709 c 128,-1,14
 674 720 674 720 691 730 c 0,15,16
 726 750 726 750 761 770.5 c 128,-1,17
 796 791 796 791 831 811 c 0,18,19
 839 815 839 815 846 819 c 128,-1,20
 853 823 853 823 860 827 c 0,21,22
 862 828 862 828 864.5 828 c 128,-1,23
 867 828 867 828 869 827 c 0,24,25
 888 815 888 815 903 799.5 c 128,-1,26
 918 784 918 784 929 765 c 0,27,28
 930 763 930 763 930 760.5 c 128,-1,29
 930 758 930 758 929 756 c 0,30,31
 899 704 899 704 869 652 c 128,-1,32
 839 600 839 600 809 548 c 0,33,34
 804 540 804 540 797 533.5 c 128,-1,35
 790 527 790 527 784 520 c 0,36,37
 783 520 783 520 782.5 519.5 c 128,-1,38
 782 519 782 519 781 519 c 1,39,-1
 781 519 l 1,0,1
339 89 m 1,40,41
 338 91 338 91 336.5 92 c 128,-1,42
 335 93 335 93 334 95 c 0,43,44
 300 129 300 129 266 163 c 128,-1,45
 232 197 232 197 198 231 c 0,46,47
 193 235 193 235 193 236.5 c 128,-1,48
 193 238 193 238 198 243 c 0,49,50
 203 249 203 249 209.5 252.5 c 128,-1,51
 216 256 216 256 224 257 c 0,52,53
 244 260 244 260 262 268 c 128,-1,54
 280 276 280 276 298 286 c 0,55,56
 351 316 351 316 396.5 356 c 128,-1,57
 442 396 442 396 481 443 c 0,58,59
 483 445 483 445 485.5 447.5 c 128,-1,60
 488 450 488 450 490 453 c 1,61,62
 497 444 497 444 504 434.5 c 128,-1,63
 511 425 511 425 520 417 c 0,64,65
 527 409 527 409 536.5 402 c 128,-1,66
 546 395 546 395 555 388 c 1,67,68
 549 383 549 383 543.5 378.5 c 128,-1,69
 538 374 538 374 533 370 c 0,70,71
 489 331 489 331 451 287 c 128,-1,72
 413 243 413 243 385 191 c 0,73,74
 375 172 375 172 367.5 152.5 c 128,-1,75
 360 133 360 133 357 111 c 0,76,77
 357 110 357 110 356.5 108.5 c 128,-1,78
 356 107 356 107 355 106 c 0,79,80
 351 102 351 102 347.5 98 c 128,-1,81
 344 94 344 94 339 89 c 1,82,-1
 339 89 l 1,40,41
378 611 m 1,83,84
 395 632 395 632 413 652.5 c 128,-1,85
 431 673 431 673 449 693 c 0,86,87
 448 694 448 694 448 694.5 c 128,-1,88
 448 695 448 695 448 695 c 1,89,90
 441 696 441 696 434.5 697 c 128,-1,91
 428 698 428 698 421 698 c 0,92,93
 383 700 383 700 349.5 688.5 c 128,-1,94
 316 677 316 677 285 658 c 0,95,96
 266 646 266 646 248.5 632 c 128,-1,97
 231 618 231 618 215 602 c 0,98,99
 213 599 213 599 210 597 c 128,-1,100
 207 595 207 595 203 594 c 1,101,102
 204 595 204 595 204.5 596 c 128,-1,103
 205 597 205 597 206 598 c 0,104,105
 226 622 226 622 246 646 c 128,-1,106
 266 670 266 670 288 693 c 0,107,108
 311 718 311 718 338 739 c 128,-1,109
 365 760 365 760 397 775 c 0,110,111
 422 787 422 787 448 794 c 128,-1,112
 474 801 474 801 502 800 c 0,113,114
 509 799 509 799 516.5 798.5 c 128,-1,115
 524 798 524 798 531 796 c 0,116,117
 535 796 535 796 537 796.5 c 128,-1,118
 539 797 539 797 541 799 c 0,119,120
 554 814 554 814 566.5 828.5 c 128,-1,121
 579 843 579 843 592 858 c 0,122,123
 593 860 593 860 594.5 862 c 128,-1,124
 596 864 596 864 597 865 c 0,125,126
 598 865 598 865 598.5 864.5 c 128,-1,127
 599 864 599 864 600 864 c 1,128,129
 599 857 599 857 598 850.5 c 128,-1,130
 597 844 597 844 596 838 c 0,131,132
 592 804 592 804 587.5 770.5 c 128,-1,133
 583 737 583 737 579 703 c 0,134,135
 578 698 578 698 576 695 c 128,-1,136
 574 692 574 692 569 689 c 0,137,138
 522 670 522 670 475 650 c 128,-1,139
 428 630 428 630 381 610 c 1,140,141
 381 610 381 610 380.5 610 c 128,-1,142
 380 610 380 610 379 610 c 2,143,144
 379 610 379 610 378.5 610.5 c 128,-1,145
 378 611 378 611 378 611 c 1,83,84
609 666 m 1,146,147
 640 615 640 615 679.5 575.5 c 128,-1,148
 719 536 719 536 770 506 c 1,149,150
 761 498 761 498 753.5 490 c 128,-1,151
 746 482 746 482 736 477 c 0,152,153
 716 464 716 464 693.5 456 c 128,-1,154
 671 448 671 448 647 446 c 2,155,156
 647 446 647 446 646 446 c 128,-1,157
 645 446 645 446 645 446 c 1,158,159
 638 441 638 441 632.5 443.5 c 128,-1,160
 627 446 627 446 622 450 c 0,161,162
 601 464 601 464 584 481 c 128,-1,163
 567 498 567 498 553 518 c 0,164,165
 551 520 551 520 549.5 523 c 128,-1,166
 548 526 548 526 547 528 c 0,167,168
 545 531 545 531 545 533.5 c 128,-1,169
 545 536 545 536 547 539 c 0,170,171
 548 541 548 541 548.5 543 c 128,-1,172
 549 545 549 545 549 547 c 0,173,174
 551 570 551 570 558.5 591 c 128,-1,175
 566 612 566 612 578 631 c 0,176,177
 583 641 583 641 592 649 c 128,-1,178
 601 657 601 657 609 666 c 1,146,147
236 598 m 1,179,180
 234 594 234 594 232.5 591 c 128,-1,181
 231 588 231 588 230 585 c 0,182,183
 217 556 217 556 209.5 526 c 128,-1,184
 202 496 202 496 203 464 c 0,185,186
 203 445 203 445 207.5 426 c 128,-1,187
 212 407 212 407 221 390 c 0,188,189
 225 383 225 383 230.5 376.5 c 128,-1,190
 236 370 236 370 241 364 c 0,191,192
 246 359 246 359 246 357 c 128,-1,193
 246 355 246 355 242 350 c 0,194,195
 226 330 226 330 209.5 311 c 128,-1,196
 193 292 193 292 177 272 c 0,197,198
 176 270 176 270 174 268 c 128,-1,199
 172 266 172 266 170 264 c 0,200,201
 165 258 165 258 163 258 c 128,-1,202
 161 258 161 258 156 263 c 0,203,204
 143 278 143 278 134.5 294.5 c 128,-1,205
 126 311 126 311 123 330 c 0,206,207
 115 367 115 367 121 402 c 128,-1,208
 127 437 127 437 140 471 c 0,209,210
 148 491 148 491 159 511 c 128,-1,211
 170 531 170 531 183 549 c 0,212,213
 193 562 193 562 205.5 573.5 c 128,-1,214
 218 585 218 585 231 595 c 0,215,216
 232 595 232 595 233 596 c 128,-1,217
 234 597 234 597 236 598 c 1,218,-1
 236 598 l 1,179,180
183 159 m 1,219,220
 172 152 172 152 160 146 c 128,-1,221
 148 140 148 140 138 131 c 0,222,223
 127 123 127 123 118 113.5 c 128,-1,224
 109 104 109 104 100 95 c 1,225,226
 100 96 100 96 100 96.5 c 128,-1,227
 100 97 100 97 100 98 c 0,228,229
 104 110 104 110 110.5 121 c 128,-1,230
 117 132 117 132 124 142 c 0,231,232
 139 164 139 164 158 181.5 c 128,-1,233
 177 199 177 199 198 214 c 0,234,235
 201 217 201 217 203 216.5 c 128,-1,236
 205 216 205 216 207 213 c 0,237,238
 228 180 228 180 254.5 153 c 128,-1,239
 281 126 281 126 313 104 c 0,240,241
 317 102 317 102 317 100 c 128,-1,242
 317 98 317 98 314 96 c 0,243,244
 304 87 304 87 293.5 77.5 c 128,-1,245
 283 68 283 68 272 59 c 0,246,247
 262 52 262 52 252.5 45.5 c 128,-1,248
 243 39 243 39 233 32 c 0,249,250
 230 30 230 30 227 29 c 128,-1,251
 224 28 224 28 221 26 c 0,252,253
 210 22 210 22 199 18 c 128,-1,254
 188 14 188 14 177 10 c 0,255,256
 176 9 176 9 174 8.5 c 128,-1,257
 172 8 172 8 170 8 c 1,258,259
 191 24 191 24 207 44 c 128,-1,260
 223 64 223 64 238 85 c 1,261,262
 194 69 194 69 159.5 41 c 128,-1,263
 125 13 125 13 98 -25 c 1,264,265
 114 23 114 23 136 69 c 128,-1,266
 158 115 158 115 184 158 c 0,267,268
 184 159 184 159 183.5 159 c 128,-1,269
 183 159 183 159 183 159 c 1,270,-1
 183 159 l 1,219,220
618 432 m 1,271,272
 607 425 607 425 597 418 c 128,-1,273
 587 411 587 411 578 404 c 0,274,275
 569 399 569 399 566.5 399 c 128,-1,276
 564 399 564 399 556 404 c 0,277,278
 540 415 540 415 527 428.5 c 128,-1,279
 514 442 514 442 504 458 c 0,280,281
 501 462 501 462 501.5 465.5 c 128,-1,282
 502 469 502 469 505 473 c 0,283,284
 512 482 512 482 518 491 c 128,-1,285
 524 500 524 500 530 509 c 0,286,287
 531 511 531 511 532 512.5 c 128,-1,288
 533 514 533 514 534 516 c 1,289,290
 549 488 549 488 569.5 467 c 128,-1,291
 590 446 590 446 618 432 c 1,271,272
EndSplineSet
EndChar

StartChar: exclam
Encoding: 33 33 24
Width: 1024
Flags: W
LayerCount: 2
Fore
SplineSet
629 204 m 1,0,1
 619 207 619 207 609 211 c 128,-1,2
 599 215 599 215 589 219 c 0,3,4
 565 226 565 226 541 230.5 c 128,-1,5
 517 235 517 235 492 238 c 0,6,7
 481 239 481 239 469.5 239 c 128,-1,8
 458 239 458 239 446 239 c 0,9,10
 443 239 443 239 441.5 240.5 c 128,-1,11
 440 242 440 242 441 246 c 0,12,13
 444 292 444 292 453.5 336.5 c 128,-1,14
 463 381 463 381 477 425 c 0,15,16
 481 438 481 438 485.5 450 c 128,-1,17
 490 462 490 462 494 475 c 0,18,19
 495 476 495 476 496.5 477 c 128,-1,20
 498 478 498 478 499 478 c 0,21,22
 550 501 550 501 602 517.5 c 128,-1,23
 654 534 654 534 708 544 c 0,24,25
 720 547 720 547 732.5 549.5 c 128,-1,26
 745 552 745 552 757 554 c 0,27,28
 760 555 760 555 762.5 554 c 128,-1,29
 765 553 765 553 767 550 c 0,30,31
 775 536 775 536 780 521 c 128,-1,32
 785 506 785 506 785 489 c 0,33,34
 785 476 785 476 779.5 464.5 c 128,-1,35
 774 453 774 453 768 442 c 0,36,37
 758 427 758 427 745.5 415 c 128,-1,38
 733 403 733 403 717 394 c 0,39,40
 715 392 715 392 713 390 c 128,-1,41
 711 388 711 388 710 386 c 0,42,43
 684 346 684 346 664.5 303.5 c 128,-1,44
 645 261 645 261 633 215 c 0,45,46
 633 213 633 213 632 210.5 c 128,-1,47
 631 208 631 208 631 206 c 0,48,49
 630 205 630 205 630 204.5 c 128,-1,50
 630 204 630 204 629 204 c 1,51,-1
 629 204 l 1,0,1
675 608 m 1,52,53
 693 600 693 600 711.5 592.5 c 128,-1,54
 730 585 730 585 747 572 c 1,55,56
 680 561 680 561 616.5 542.5 c 128,-1,57
 553 524 553 524 492 497 c 1,58,59
 491 502 491 502 490.5 505.5 c 128,-1,60
 490 509 490 509 490 513 c 0,61,62
 486 562 486 562 477 610.5 c 128,-1,63
 468 659 468 659 453 705 c 0,64,65
 449 717 449 717 443.5 728.5 c 128,-1,66
 438 740 438 740 433 752 c 0,67,68
 432 754 432 754 432 757 c 128,-1,69
 432 760 432 760 432 763 c 0,70,71
 435 776 435 776 441 787 c 128,-1,72
 447 798 447 798 457 807 c 0,73,74
 460 810 460 810 464.5 811.5 c 128,-1,75
 469 813 469 813 474 813 c 0,76,77
 490 815 490 815 506 816.5 c 128,-1,78
 522 818 522 818 538 820 c 0,79,80
 578 824 578 824 618 832 c 128,-1,81
 658 840 658 840 696 851 c 0,82,83
 713 856 713 856 729 864 c 128,-1,84
 745 872 745 872 759 883 c 0,85,86
 767 889 767 889 775 894.5 c 128,-1,87
 783 900 783 900 791 906 c 1,88,89
 791 900 791 900 791 893.5 c 128,-1,90
 791 887 791 887 791 880 c 0,91,92
 792 872 792 872 792.5 863.5 c 128,-1,93
 793 855 793 855 794 847 c 0,94,95
 795 843 795 843 794 841 c 128,-1,96
 793 839 793 839 789 838 c 0,97,98
 740 823 740 823 691.5 809 c 128,-1,99
 643 795 643 795 595 781 c 0,100,101
 583 777 583 777 571.5 774 c 128,-1,102
 560 771 560 771 549 767 c 0,103,104
 538 764 538 764 531 756 c 128,-1,105
 524 748 524 748 523 738 c 0,106,107
 521 699 521 699 521.5 660.5 c 128,-1,108
 522 622 522 622 535 585 c 0,109,110
 535 583 535 583 536 581.5 c 128,-1,111
 537 580 537 580 538 579 c 1,112,113
 538 580 538 580 538.5 581.5 c 128,-1,114
 539 583 539 583 539 585 c 0,115,116
 539 601 539 601 539 617.5 c 128,-1,117
 539 634 539 634 539 650 c 0,118,119
 539 658 539 658 544.5 663.5 c 128,-1,120
 550 669 550 669 558 669 c 0,121,122
 576 669 576 669 594.5 668.5 c 128,-1,123
 613 668 613 668 632 668 c 0,124,125
 661 668 661 668 691 668 c 128,-1,126
 721 668 721 668 751 667 c 0,127,128
 753 667 753 667 755 667 c 128,-1,129
 757 667 757 667 759 666 c 1,130,131
 751 656 751 656 743 646 c 128,-1,132
 735 636 735 636 723 630 c 256,133,134
 711 624 711 624 699 618.5 c 128,-1,135
 687 613 687 613 675 608 c 1,52,53
399 61 m 1,136,137
 380 61 380 61 360.5 61 c 128,-1,138
 341 61 341 61 322 61 c 0,139,140
 319 61 319 61 315 62.5 c 128,-1,141
 311 64 311 64 308 67 c 0,142,143
 297 77 297 77 292.5 90 c 128,-1,144
 288 103 288 103 288 117 c 0,145,146
 288 124 288 124 292.5 129.5 c 128,-1,147
 297 135 297 135 303 138 c 0,148,149
 305 140 305 140 308 139 c 128,-1,150
 311 138 311 138 314 137 c 0,151,152
 332 129 332 129 348.5 131 c 128,-1,153
 365 133 365 133 380 145 c 0,154,155
 383 147 383 147 386 150.5 c 128,-1,156
 389 154 389 154 391 158 c 0,157,158
 399 174 399 174 408.5 189 c 128,-1,159
 418 204 418 204 430 218 c 0,160,161
 432 221 432 221 435 222 c 128,-1,162
 438 223 438 223 442 223 c 0,163,164
 473 223 473 223 503.5 217.5 c 128,-1,165
 534 212 534 212 564 204 c 0,166,167
 577 201 577 201 589.5 196 c 128,-1,168
 602 191 602 191 615 187 c 0,169,170
 619 186 619 186 620 184 c 128,-1,171
 621 182 621 182 618 177 c 0,172,173
 614 170 614 170 609.5 162 c 128,-1,174
 605 154 605 154 601 146 c 0,175,176
 580 113 580 113 550 92.5 c 128,-1,177
 520 72 520 72 482 62 c 0,178,179
 481 61 481 61 479.5 61 c 128,-1,180
 478 61 478 61 476 61 c 0,181,182
 457 61 457 61 437.5 61 c 128,-1,183
 418 61 418 61 399 61 c 1,184,-1
 399 61 l 1,136,137
175 707 m 1,185,186
 167 707 167 707 159 707 c 128,-1,187
 151 707 151 707 143 707 c 0,188,189
 139 707 139 707 137 708.5 c 128,-1,190
 135 710 135 710 134 713 c 0,191,192
 131 726 131 726 131 739.5 c 128,-1,193
 131 753 131 753 134 766 c 0,194,195
 134 771 134 771 137 773 c 128,-1,196
 140 775 140 775 145 775 c 0,197,198
 160 774 160 774 175.5 774.5 c 128,-1,199
 191 775 191 775 206 775 c 0,200,201
 210 775 210 775 211 776.5 c 128,-1,202
 212 778 212 778 212 781 c 0,203,204
 212 796 212 796 212 811.5 c 128,-1,205
 212 827 212 827 212 842 c 0,206,207
 212 847 212 847 214 849.5 c 128,-1,208
 216 852 216 852 220 853 c 0,209,210
 234 855 234 855 247.5 855 c 128,-1,211
 261 855 261 855 274 852 c 0,212,213
 278 851 278 851 279 848.5 c 128,-1,214
 280 846 280 846 280 843 c 0,215,216
 279 828 279 828 279.5 813 c 128,-1,217
 280 798 280 798 279 783 c 0,218,219
 279 778 279 778 281 776 c 128,-1,220
 283 774 283 774 288 774 c 0,221,222
 303 775 303 775 318.5 774.5 c 128,-1,223
 334 774 334 774 349 775 c 0,224,225
 352 775 352 775 354 773.5 c 128,-1,226
 356 772 356 772 357 768 c 0,227,228
 360 755 360 755 360 741.5 c 128,-1,229
 360 728 360 728 357 715 c 0,230,231
 356 710 356 710 354 708 c 128,-1,232
 352 706 352 706 347 707 c 0,233,234
 332 707 332 707 317 707 c 128,-1,235
 302 707 302 707 286 707 c 0,236,237
 282 707 282 707 280.5 705.5 c 128,-1,238
 279 704 279 704 279 700 c 0,239,240
 280 685 280 685 279.5 669.5 c 128,-1,241
 279 654 279 654 280 639 c 0,242,243
 280 634 280 634 278 632 c 128,-1,244
 276 630 276 630 271 629 c 0,245,246
 258 626 258 626 245 626 c 128,-1,247
 232 626 232 626 220 629 c 0,248,249
 215 630 215 630 213.5 632 c 128,-1,250
 212 634 212 634 212 638 c 0,251,252
 212 653 212 653 212 668 c 128,-1,253
 212 683 212 683 212 698 c 0,254,255
 212 705 212 705 211 706 c 128,-1,256
 210 707 210 707 204 707 c 0,257,258
 197 707 197 707 189.5 707 c 128,-1,259
 182 707 182 707 175 707 c 1,260,261
 175 707 175 707 175 707 c 129,-1,262
 175 707 175 707 175 707 c 1,263,-1
 175 707 l 1,185,186
287 491 m 1,264,265
 292 491 292 491 298 491 c 128,-1,266
 304 491 304 491 309 491 c 0,267,268
 312 491 312 491 313.5 492 c 128,-1,269
 315 493 315 493 315 497 c 0,270,271
 315 507 315 507 315 518 c 128,-1,272
 315 529 315 529 315 540 c 0,273,274
 315 544 315 544 316.5 546.5 c 128,-1,275
 318 549 318 549 322 550 c 0,276,277
 331 551 331 551 340 551 c 128,-1,278
 349 551 349 551 358 549 c 0,279,280
 362 549 362 549 364 546.5 c 128,-1,281
 366 544 366 544 366 540 c 0,282,283
 365 530 365 530 365.5 519.5 c 128,-1,284
 366 509 366 509 365 498 c 0,285,286
 365 493 365 493 367 491.5 c 128,-1,287
 369 490 369 490 373 491 c 0,288,289
 384 491 384 491 394.5 491 c 128,-1,290
 405 491 405 491 416 491 c 0,291,292
 419 491 419 491 421.5 489.5 c 128,-1,293
 424 488 424 488 424 484 c 0,294,295
 424 475 424 475 424 466 c 128,-1,296
 424 457 424 457 424 448 c 0,297,298
 424 444 424 444 421.5 442 c 128,-1,299
 419 440 419 440 415 440 c 0,300,301
 404 440 404 440 393 440 c 128,-1,302
 382 440 382 440 371 440 c 0,303,304
 368 440 368 440 366.5 439 c 128,-1,305
 365 438 365 438 365 434 c 0,306,307
 366 423 366 423 365.5 412 c 128,-1,308
 365 401 365 401 366 390 c 0,309,310
 366 387 366 387 364.5 384.5 c 128,-1,311
 363 382 363 382 360 382 c 0,312,313
 350 380 350 380 340.5 380 c 128,-1,314
 331 380 331 380 321 382 c 0,315,316
 317 382 317 382 316 384 c 128,-1,317
 315 386 315 386 315 390 c 0,318,319
 315 401 315 401 315 412 c 128,-1,320
 315 423 315 423 315 434 c 0,321,322
 315 437 315 437 313.5 438.5 c 128,-1,323
 312 440 312 440 308 440 c 0,324,325
 297 440 297 440 286 440 c 128,-1,326
 275 440 275 440 264 440 c 0,327,328
 261 440 261 440 259 441.5 c 128,-1,329
 257 443 257 443 256 447 c 0,330,331
 254 456 254 456 254 465.5 c 128,-1,332
 254 475 254 475 256 485 c 0,333,334
 257 488 257 488 258.5 489.5 c 128,-1,335
 260 491 260 491 264 491 c 0,336,337
 270 490 270 490 275.5 490.5 c 128,-1,338
 281 491 281 491 287 491 c 1,339,-1
 287 491 l 1,264,265
799 759 m 1,340,341
 798 754 798 754 797 749.5 c 128,-1,342
 796 745 796 745 795 741 c 0,343,344
 792 726 792 726 787.5 711.5 c 128,-1,345
 783 697 783 697 774 685 c 0,346,347
 772 682 772 682 770 680.5 c 128,-1,348
 768 679 768 679 764 679 c 0,349,350
 714 679 714 679 664.5 679.5 c 128,-1,351
 615 680 615 680 565 680 c 0,352,353
 560 680 560 680 555.5 679.5 c 128,-1,354
 551 679 551 679 546 678 c 0,355,356
 543 677 543 677 541.5 677.5 c 128,-1,357
 540 678 540 678 540 681 c 0,358,359
 540 687 540 687 539.5 693.5 c 128,-1,360
 539 700 539 700 541 706 c 0,361,362
 542 711 542 711 546 713.5 c 128,-1,363
 550 716 550 716 555 717 c 0,364,365
 606 726 606 726 657 735 c 128,-1,366
 708 744 708 744 759 753 c 0,367,368
 767 754 767 754 775.5 755.5 c 128,-1,369
 784 757 784 757 792 759 c 0,370,371
 793 759 793 759 794.5 759 c 128,-1,372
 796 759 796 759 799 759 c 1,373,-1
 799 759 l 1,340,341
799 827 m 1,374,375
 800 822 800 822 801 817 c 128,-1,376
 802 812 802 812 803 807 c 0,377,378
 803 803 803 803 802.5 798 c 128,-1,379
 802 793 802 793 802 788 c 0,380,381
 801 776 801 776 799 774 c 128,-1,382
 797 772 797 772 785 770 c 0,383,384
 725 759 725 759 665.5 748.5 c 128,-1,385
 606 738 606 738 546 727 c 0,386,387
 545 727 545 727 543.5 727 c 128,-1,388
 542 727 542 727 541 727 c 0,389,390
 538 739 538 739 542.5 746.5 c 128,-1,391
 547 754 547 754 559 758 c 0,392,393
 574 762 574 762 588.5 766 c 128,-1,394
 603 770 603 770 617 775 c 0,395,396
 661 788 661 788 704.5 800.5 c 128,-1,397
 748 813 748 813 792 826 c 0,398,399
 793 826 793 826 794.5 826.5 c 128,-1,400
 796 827 796 827 799 827 c 1,401,-1
 799 827 l 1,374,375
276 246 m 1,402,403
 276 237 276 237 276 228 c 128,-1,404
 276 219 276 219 277 210 c 0,405,406
 277 206 277 206 275 203.5 c 128,-1,407
 273 201 273 201 269 201 c 0,408,409
 263 201 263 201 257 201 c 128,-1,410
 251 201 251 201 244 201 c 0,411,412
 241 201 241 201 239 203 c 128,-1,413
 237 205 237 205 237 210 c 0,414,415
 238 218 238 218 238 227.5 c 128,-1,416
 238 237 238 237 238 246 c 1,417,418
 228 246 228 246 219.5 246 c 128,-1,419
 211 246 211 246 202 246 c 0,420,421
 196 246 196 246 194 247.5 c 128,-1,422
 192 249 192 249 192 255 c 0,423,424
 191 261 191 261 191.5 267.5 c 128,-1,425
 192 274 192 274 192 280 c 0,426,427
 193 283 193 283 194.5 284.5 c 128,-1,428
 196 286 196 286 200 286 c 0,429,430
 208 285 208 285 215.5 285.5 c 128,-1,431
 223 286 223 286 231 285 c 0,432,433
 235 285 235 285 236.5 286.5 c 128,-1,434
 238 288 238 288 238 292 c 0,435,436
 237 300 237 300 237.5 307.5 c 128,-1,437
 238 315 238 315 238 323 c 0,438,439
 237 326 237 326 238.5 328 c 128,-1,440
 240 330 240 330 244 330 c 0,441,442
 251 330 251 330 257.5 330 c 128,-1,443
 264 330 264 330 271 330 c 0,444,445
 274 330 274 330 275.5 328 c 128,-1,446
 277 326 277 326 276 323 c 0,447,448
 276 315 276 315 276.5 307.5 c 128,-1,449
 277 300 277 300 276 292 c 0,450,451
 276 288 276 288 277.5 286.5 c 128,-1,452
 279 285 279 285 283 285 c 0,453,454
 290 286 290 286 298 285.5 c 128,-1,455
 306 285 306 285 313 286 c 0,456,457
 317 286 317 286 319 284 c 128,-1,458
 321 282 321 282 321 279 c 0,459,460
 321 273 321 273 321.5 266.5 c 128,-1,461
 322 260 322 260 321 254 c 0,462,463
 321 250 321 250 319 248 c 128,-1,464
 317 246 317 246 312 246 c 0,465,466
 304 246 304 246 295 246 c 128,-1,467
 286 246 286 246 276 246 c 1,468,-1
 276 246 l 1,402,403
EndSplineSet
EndChar
